<?xml version="1.0" encoding="UTF-8"?>
<!DOCTYPE svg PUBLIC "-//W3C//DTD SVG 1.1//EN" "http://www.w3.org/Graphics/SVG/1.1/DTD/svg11.dtd">
<svg xmlns="http://www.w3.org/2000/svg" version="1.1" width="2238px" height="2137px" style="shape-rendering:geometricPrecision; text-rendering:geometricPrecision; image-rendering:optimizeQuality; fill-rule:evenodd; clip-rule:evenodd" xmlns:xlink="http://www.w3.org/1999/xlink">
<g><path style="opacity:1" fill="#fe00ff" d="M 940.5,1.5 C 967.036,-1.15525 985.869,9.51142 997,33.5C 1005.5,61.3319 998.333,84.1652 975.5,102C 956.377,111.061 937.377,120.395 918.5,130C 831.403,182.26 774.903,257.76 749,356.5C 720.948,468.796 734.948,575.463 791,676.5C 854.366,777.706 945.866,835.206 1065.5,849C 1137.23,857.462 1206.89,849.128 1274.5,824C 1366.64,785.192 1432.14,719.692 1471,627.5C 1513,520.161 1513,412.828 1471,305.5C 1430.17,209.667 1361.33,142.501 1264.5,104C 1236.48,83.4265 1229.65,57.2598 1244,25.5C 1256.46,6.68958 1273.96,-1.14376 1296.5,2C 1459.91,53.4259 1583.07,153.926 1666,303.5C 1741.57,449.732 1759.24,602.732 1719,762.5C 1707.21,806.545 1690.71,848.711 1669.5,889C 1828.19,905.433 1962.03,971.266 2071,1086.5C 2187.44,1217.12 2242.11,1370.46 2235,1546.5C 2233.17,1581.96 2228.17,1616.96 2220,1651.5C 2214.43,1669.4 2202.6,1680.9 2184.5,1686C 2154.95,1691.64 2132.78,1681.47 2118,1655.5C 2115.19,1649.07 2113.19,1642.4 2112,1635.5C 2111.93,1616.49 2112.43,1597.49 2113.5,1578.5C 2114.6,1495.67 2092.77,1419.67 2048,1350.5C 1990.33,1271.2 1913.16,1221.37 1816.5,1201C 1714.93,1180.76 1618.59,1195.1 1527.5,1244C 1431.76,1300.86 1373.6,1384.36 1353,1494.5C 1339.42,1571.52 1344.76,1647.19 1369,1721.5C 1410.93,1832.1 1488.1,1905.93 1600.5,1943C 1704.11,1974.67 1805.44,1968.67 1904.5,1925C 1927.8,1913.99 1949.8,1900.99 1970.5,1886C 1993.99,1875.39 2015.99,1877.72 2036.5,1893C 2052.71,1909.37 2057.21,1928.53 2050,1950.5C 2048.17,1954.83 2045.84,1958.83 2043,1962.5C 1936.48,2063.32 1809.64,2120.15 1662.5,2133C 1483.66,2143.95 1327.66,2090.28 1194.5,1972C 1167.11,1945.79 1141.77,1917.95 1118.5,1888.5C 1001.4,2037.4 847.732,2119.24 657.5,2134C 484.345,2140.85 333.345,2087.18 204.5,1973C 184.095,1956.12 178.595,1935.28 188,1910.5C 203.351,1883.7 226.184,1874.2 256.5,1882C 260.581,1883.47 264.581,1885.14 268.5,1887C 355.66,1947.96 452.327,1972.29 558.5,1960C 651.931,1948.87 731.097,1909.7 796,1842.5C 850.455,1780.22 881.455,1707.56 889,1624.5C 897.137,1547.12 885.804,1472.79 855,1401.5C 812.019,1313.86 744.852,1252.69 653.5,1218C 577.436,1190.63 499.77,1184.97 420.5,1201C 342.603,1217.35 276.103,1253.85 221,1310.5C 162.539,1376.47 130.539,1453.8 125,1542.5C 124.357,1554.49 123.857,1566.49 123.5,1578.5C 124.567,1597.49 125.067,1616.49 125,1635.5C 120.246,1662.92 104.412,1680.09 77.5,1687C 43.723,1690.87 22.8896,1676.37 15,1643.5C -20.3786,1462.71 13.9548,1296.71 118,1145.5C 229.957,995.064 379.79,909.564 567.5,889C 502.784,761.992 482.617,628.159 507,487.5C 536.8,333.99 611.966,208.156 732.5,110C 794.863,60.9805 864.197,24.8139 940.5,1.5 Z M 1105.5,1035.5 C 1174.37,1033.51 1226.87,1061.51 1263,1119.5C 1290.16,1171.17 1291.49,1223.51 1267,1276.5C 1230.86,1340.16 1176.03,1370.33 1102.5,1367C 1042.86,1359.28 998.689,1329.11 970,1276.5C 945.511,1223.51 946.844,1171.17 974,1119.5C 1004.11,1070.18 1047.95,1042.18 1105.5,1035.5 Z"/></g>
<g><path style="opacity:1" fill="#fe00ff" d="M 1099.5,480.5 C 1190.71,478.479 1279.04,493.312 1364.5,525C 1337.61,644.223 1263.28,708.89 1141.5,719C 1086.61,723.621 1034.61,713.621 985.5,689C 932.454,657.931 897.287,612.765 880,553.5C 877.414,543.989 874.914,534.489 872.5,525C 945.858,497.761 1021.52,482.928 1099.5,480.5 Z"/></g>
<g><path style="opacity:1" fill="#fe00ff" d="M 499.5,1324.5 C 552.164,1323.5 601.497,1335.67 647.5,1361C 703.63,1394.84 738.463,1444.01 752,1508.5C 759.462,1549.33 760.462,1590.33 755,1631.5C 748.412,1676.32 730.745,1715.99 702,1750.5C 697.985,1754.68 693.818,1758.68 689.5,1762.5C 549.507,1653.97 460.507,1512.64 422.5,1338.5C 433.725,1333.94 445.391,1330.78 457.5,1329C 471.59,1326.89 485.59,1325.39 499.5,1324.5 Z"/></g>
<g><path style="opacity:1" fill="#fe00ff" d="M 1721.5,1324.5 C 1753.24,1323.7 1784.24,1328.03 1814.5,1337.5C 1776.29,1511.69 1687.29,1653.36 1547.5,1762.5C 1514.05,1729.28 1492.88,1689.28 1484,1642.5C 1476.4,1597.77 1476.73,1553.1 1485,1508.5C 1505.75,1420.74 1559.25,1363.58 1645.5,1337C 1670.48,1329.79 1695.82,1325.62 1721.5,1324.5 Z"/></g>
</svg>
