<?xml version="1.0" encoding="UTF-8"?>
<svg version="1.1" xmlns="http://www.w3.org/2000/svg" width="2138" height="1871">
<path d="M0 0 C1.07145264 0.30550781 1.07145264 0.30550781 2.16455078 0.6171875 C23.67221438 6.94210967 41.78386522 18.72313027 58 34 C58.66386719 34.59941406 59.32773438 35.19882812 60.01171875 35.81640625 C74.55679644 49.47638793 84.55211356 67.91505676 90.9375 86.625 C91.34307129 87.80280029 91.34307129 87.80280029 91.75683594 89.00439453 C96.96683537 105.29802394 97.43310004 121.29926581 97.37917423 138.2349596 C97.38249923 140.67285139 97.38713856 143.11074168 97.39296427 145.54862878 C97.40261868 150.84270133 97.40306314 156.13665335 97.39524681 161.43072013 C97.38360883 169.35603771 97.38946194 177.28127875 97.39861295 185.2065962 C97.41371831 198.71709942 97.41475516 212.22757054 97.40807533 225.73807907 C97.40137233 239.42318048 97.40125435 253.10825871 97.40913773 266.79335976 C97.40963278 267.65875775 97.41012784 268.52415575 97.4106379 269.41577792 C97.41319465 273.82873314 97.41586228 278.24168828 97.41857243 282.65464341 C97.43797641 314.57271017 97.44322331 346.49076637 97.44125557 378.40883827 C97.43937503 410.02059764 97.4445803 441.63234426 97.45893669 473.24410057 C97.45938078 474.22642843 97.45982486 475.20875629 97.4602824 476.22085166 C97.46480388 486.19475083 97.46948222 496.16864992 97.47426576 506.14254897 C97.48448243 527.44540812 97.49373152 548.74826767 97.50257015 570.05112743 C97.50299273 571.06678343 97.5034153 572.08243942 97.50385069 573.12887287 C97.52389726 621.45505768 97.53440085 669.78124358 97.54312245 718.10743158 C97.54370132 721.3135443 97.54428359 724.51965702 97.54486683 727.72576974 C97.54681374 738.43414835 97.54874586 749.14252696 97.55066922 759.85090558 C97.55095536 761.44360353 97.55095536 761.44360353 97.55124727 763.06847719 C97.55221068 768.43497425 97.55317048 773.80147131 97.55412453 779.16796837 C97.56272488 827.48928224 97.57359945 875.81059546 97.58585708 924.13190853 C97.58666971 927.33827582 97.5874782 930.5446431 97.58828614 933.75101039 C97.60048032 982.04495427 97.61477725 1030.33889671 97.63422298 1078.63283825 C97.63463049 1079.64768058 97.635038 1080.66252292 97.63545785 1081.70811805 C97.64360319 1101.98311338 97.65196294 1122.2581086 97.66086475 1142.53310361 C97.66567337 1153.49706177 97.67034951 1164.46101998 97.67487907 1175.42497826 C97.67528501 1176.40585039 97.67569095 1177.38672252 97.67610919 1178.39731805 C97.68950506 1210.98047403 97.69442467 1243.56362561 97.69517689 1276.14678413 C97.69591166 1306.99019804 97.70252255 1337.83360509 97.71650667 1368.67701598 C97.71849419 1373.07255914 97.72040355 1377.46810234 97.72226334 1381.86364555 C97.72262986 1382.7252968 97.72299639 1383.58694804 97.72337402 1384.47470993 C97.72898728 1398.1258725 97.72783943 1411.77702591 97.72385849 1425.42818871 C97.72007657 1438.84656298 97.72334185 1452.26492001 97.73412842 1465.68329065 C97.74023504 1473.55252151 97.74084108 1481.42170669 97.7333442 1489.29093661 C97.72838712 1495.12979769 97.7338118 1500.96861891 97.74330463 1506.80747543 C97.74550735 1509.15726164 97.74434665 1511.50705396 97.73944724 1513.85683609 C97.69875772 1534.90567053 99.2310211 1552.31774009 112 1570 C112.51046875 1570.70769531 113.0209375 1571.41539063 113.546875 1572.14453125 C123.73904283 1584.93519731 140.6139567 1592.88296715 156.61080045 1594.79534903 C161.32902704 1595.1994968 166.05423712 1595.13609325 170.78651732 1595.12600785 C172.55518942 1595.12822124 172.55518942 1595.12822124 174.35959228 1595.13047934 C177.63486384 1595.13356768 180.91009837 1595.13218289 184.18536863 1595.12892171 C187.76101589 1595.12647194 191.3366585 1595.12984545 194.91230497 1595.13247326 C201.20407279 1595.13629698 207.49583227 1595.13640728 213.78760072 1595.13412289 C223.20681818 1595.13072848 232.62602805 1595.13314304 242.04524513 1595.13672375 C258.09794418 1595.14266785 274.15064056 1595.14395285 290.20334053 1595.14274788 C306.47553979 1595.1415557 322.74773671 1595.14257807 339.01993561 1595.1463356 C340.56057008 1595.14669067 340.56057008 1595.14669067 342.13232847 1595.14705291 C347.36936411 1595.14827426 352.60639974 1595.14954008 357.84343536 1595.15082836 C368.58153173 1595.15346036 379.31962815 1595.15581405 390.0577246 1595.15808237 C391.13927987 1595.1583115 392.22083515 1595.15854064 393.33516483 1595.15877671 C410.17323931 1595.16229749 427.01131371 1595.16459075 443.84938848 1595.16614306 C445.55620114 1595.16630103 445.55620114 1595.16630103 447.29749486 1595.16646218 C451.91878241 1595.16688671 456.54006995 1595.16730467 461.16135749 1595.16771799 C517.64175378 1595.17277535 574.12214365 1595.18743289 630.60253685 1595.20640401 C643.81698464 1595.21084136 657.03143247 1595.21515987 670.24588031 1595.21947271 C672.66652026 1595.22026324 675.08716021 1595.2210538 677.50780017 1595.22184439 C682.36405671 1595.22343022 687.22031325 1595.22501483 692.07656979 1595.22659888 C696.95085677 1595.22818925 701.82514375 1595.22978373 706.69943073 1595.23138161 C762.93369368 1595.2498106 819.16795703 1595.26661586 875.40222092 1595.28192069 C879.21506377 1595.28295924 883.02790663 1595.28400269 886.84074949 1595.28504662 C945.55891234 1595.3010884 1004.27707445 1595.31413633 1062.99523926 1595.32006836 C1064.25796017 1595.32019645 1065.52068108 1595.32032455 1066.82166626 1595.32045652 C1087.18110004 1595.3225126 1107.54053383 1595.32441154 1127.89996762 1595.32627667 C1186.54650026 1595.33165007 1245.19302926 1595.33944135 1303.8395586 1595.36063671 C1305.04567748 1595.36107139 1306.25179636 1595.36150606 1307.49446429 1595.36195391 C1332.78308414 1595.37109914 1358.07170357 1595.38108788 1383.36032264 1595.39216815 C1395.20289521 1595.39735448 1407.04546785 1595.40235398 1418.88804054 1595.40724754 C1420.05400967 1595.40773271 1421.2199788 1595.40821787 1422.42128033 1595.40871774 C1459.97788604 1595.42425199 1497.53447862 1595.42665989 1535.09108683 1595.4220174 C1572.92196066 1595.41738383 1610.75281016 1595.42495047 1648.58367688 1595.44962113 C1653.81306804 1595.45302699 1659.04245928 1595.45628816 1664.27185059 1595.45946121 C1665.29694167 1595.46008815 1666.32203275 1595.46071509 1667.37818719 1595.46136103 C1683.60007446 1595.47091055 1699.82192959 1595.46703051 1716.04381572 1595.45751835 C1732.00080166 1595.44843571 1747.95773051 1595.45359314 1763.91470679 1595.47381646 C1773.26555651 1595.48523811 1782.61625218 1595.48578921 1791.96709655 1595.47006904 C1798.18593444 1595.46071013 1804.40465193 1595.46596365 1810.62347362 1595.48283859 C1814.14330068 1595.49198713 1817.66282195 1595.49519059 1821.18263632 1595.48027276 C1861.66932249 1595.34518429 1895.20008935 1605.92614891 1925 1634 C1925.66386719 1634.59941406 1926.32773438 1635.19882813 1927.01171875 1635.81640625 C1942.87848574 1650.71764989 1954.53831528 1672.07787706 1960 1693 C1960.19174805 1693.67627441 1960.38349609 1694.35254883 1960.58105469 1695.04931641 C1966.76704391 1717.3461242 1966.36652 1743.80872816 1960 1766 C1959.81808105 1766.66547852 1959.63616211 1767.33095703 1959.44873047 1768.01660156 C1953.45967207 1789.50014082 1941.46331573 1808.17068863 1926 1824 C1925.27296875 1824.78890625 1924.5459375 1825.5778125 1923.796875 1826.390625 C1917.59135046 1832.96388433 1910.50278956 1838.02814288 1903 1843 C1902.05511719 1843.6290625 1901.11023437 1844.258125 1900.13671875 1844.90625 C1880.67524636 1857.01805743 1857.99938831 1863.17205755 1835.20236987 1863.1276505 C1833.41363053 1863.13012667 1833.41363053 1863.13012667 1831.58875503 1863.13265286 C1828.2712188 1863.13622951 1824.95373816 1863.13532521 1821.63620475 1863.13255108 C1818.01633582 1863.1306285 1814.3964723 1863.1345109 1810.77660486 1863.13764787 C1804.40529121 1863.14236349 1798.03398533 1863.14334559 1791.66267022 1863.14191952 C1782.1242786 1863.13980029 1772.58589505 1863.14340906 1763.04750467 1863.1481343 C1746.79196869 1863.15601277 1730.53643489 1863.1590966 1714.28089714 1863.15958023 C1697.80186608 1863.16008233 1681.32283747 1863.16272625 1664.84380722 1863.16798782 C1663.28384135 1863.16848302 1663.28384135 1863.16848302 1661.69236101 1863.16898823 C1657.45681179 1863.1703382 1653.22126257 1863.17170087 1648.98571336 1863.17308033 C1598.81344327 1863.18939176 1548.64117365 1863.1957703 1498.46890136 1863.2005282 C1473.48569459 1863.20291079 1448.50248808 1863.20661417 1423.5192815 1863.2105653 C1343.38716053 1863.22323127 1263.25503957 1863.23401447 1183.12291762 1863.23740576 C1179.2921103 1863.237568 1175.46130298 1863.23773356 1171.63049566 1863.23790014 C1163.94768935 1863.23823394 1156.26488304 1863.23856442 1148.58207673 1863.2388947 C1139.58728631 1863.2392816 1130.59249588 1863.23967121 1121.59770546 1863.24006577 C1119.02331798 1863.24017818 1116.44893051 1863.2402896 1113.87454303 1863.24040002 C1031.21092845 1863.24394873 948.54732256 1863.25902331 865.8837113 1863.28233776 C806.49309371 1863.29908151 747.10247777 1863.31455544 687.7118578 1863.31907272 C686.49018893 1863.31916621 685.26852007 1863.3192597 684.00983094 1863.31935601 C657.18951975 1863.32137518 630.36920858 1863.32253113 603.54889732 1863.3228846 C593.95157621 1863.32302077 584.3542551 1863.32322976 574.75693399 1863.32347785 C572.36935807 1863.32353941 569.98178215 1863.32359773 567.59420623 1863.3236528 C529.56252387 1863.3245723 491.5308506 1863.33453675 453.49917122 1863.34911029 C415.18267763 1863.36373417 376.86619516 1863.36876328 338.54969927 1863.36069075 C333.25073718 1863.35957542 327.95177508 1863.35856474 322.65281296 1863.35761642 C321.61410175 1863.35742646 320.57539055 1863.35723649 319.50520325 1863.35704076 C303.08100937 1863.35431078 286.65683612 1863.36163732 270.23264673 1863.37318979 C254.0686704 1863.38434886 237.90472314 1863.38474357 221.74074634 1863.37381961 C212.27381434 1863.36774081 202.80697028 1863.36977067 193.34004664 1863.38407158 C187.03797187 1863.39276251 180.73596123 1863.3903987 174.43389033 1863.37937287 C170.87084367 1863.37343909 167.30796826 1863.37187451 163.74493356 1863.38405773 C141.9231044 1863.44393274 120.36905545 1862.06916211 98.9375 1857.75 C97.88353027 1857.54165527 96.82956055 1857.33331055 95.74365234 1857.11865234 C39.37920803 1845.57110091 -15.09598712 1819.45316099 -57.5234375 1780.265625 C-59.58592874 1778.37880336 -61.67788158 1776.54559182 -63.79296875 1774.71875 C-67.99801751 1771.04742651 -71.99345494 1767.1988537 -75.9375 1763.25 C-76.63697754 1762.5497168 -77.33645508 1761.84943359 -78.05712891 1761.12792969 C-82.64572129 1756.48500291 -86.90945819 1751.75430091 -90.94140625 1746.6171875 C-93.15698224 1743.80042107 -95.47945004 1741.09504877 -97.8125 1738.375 C-141.64079347 1685.68635707 -170.2810558 1613.24912049 -170.12880117 1544.41068369 C-170.13057618 1543.39774516 -170.13235119 1542.38480663 -170.13417998 1541.34117299 C-170.13890224 1537.95479891 -170.13655128 1534.56846774 -170.13422108 1531.18209171 C-170.13617514 1528.71609618 -170.13856442 1526.25010096 -170.14134905 1523.78410622 C-170.14640746 1518.40973492 -170.14836798 1513.03537573 -170.1475983 1507.66100306 C-170.14646039 1499.61522688 -170.15105185 1491.56946083 -170.15672914 1483.52368693 C-170.16623016 1469.80997851 -170.17094626 1456.09627212 -170.17303848 1442.38256073 C-170.17516801 1428.48530615 -170.17943044 1414.58805471 -170.1862812 1400.69080162 C-170.18671182 1399.81296092 -170.18714243 1398.93512023 -170.1875861 1398.0306783 C-170.18934447 1394.45533849 -170.19111412 1390.87999869 -170.19289912 1387.30465889 C-170.21448848 1343.9767859 -170.22537586 1300.64891229 -170.23437535 1257.32103515 C-170.23730988 1243.2709522 -170.24067985 1229.2208694 -170.24434257 1215.17078662 C-170.24473 1213.68372372 -170.24473 1213.68372372 -170.24512527 1212.16661915 C-170.24617151 1208.15574091 -170.24721993 1204.14486267 -170.24827109 1200.13398444 C-170.26623452 1131.52970217 -170.28161344 1062.92541967 -170.28903012 994.32113539 C-170.28961409 988.93341037 -170.29021135 983.54568536 -170.29080774 978.15796035 C-170.29092586 977.0892147 -170.29104398 976.02046904 -170.29116567 974.91933715 C-170.29236305 964.09156954 -170.29357181 953.26380193 -170.29479821 942.43603432 C-170.29504344 940.2650474 -170.2952873 938.09406047 -170.29552978 935.92307355 C-170.30331991 866.19516551 -170.32570507 796.4672743 -170.3582062 726.73937362 C-170.38155361 676.63300449 -170.40310429 626.52663871 -170.41021252 576.42026424 C-170.41035954 575.38969693 -170.41050656 574.35912962 -170.41065803 573.297333 C-170.41384293 550.67321794 -170.41589377 528.04910292 -170.41688558 505.42498766 C-170.41730032 496.32188343 -170.41785521 487.2187792 -170.41844749 478.11567497 C-170.41850816 477.11940996 -170.41856883 476.12314494 -170.41863134 475.09669008 C-170.42064678 443.01380806 -170.43488103 410.93094592 -170.4553925 378.84807083 C-170.47598056 346.53081687 -170.48386379 314.21358589 -170.47431473 281.89632604 C-170.47299632 277.42815337 -170.47181827 272.95998067 -170.47072411 268.49180794 C-170.47050426 267.6159453 -170.47028441 266.74008266 -170.4700579 265.83767873 C-170.46694662 251.98313587 -170.47725821 238.12863702 -170.49319966 224.27410435 C-170.50860511 210.64247629 -170.50968395 197.01090895 -170.49565142 183.37927875 C-170.48785738 175.39343782 -170.49090867 167.40778272 -170.51028858 159.42196047 C-170.52346945 153.48264408 -170.51561859 147.54347298 -170.49980123 141.60415913 C-170.49666372 139.22417157 -170.50015982 136.84416308 -170.51129298 134.46419949 C-170.67822942 96.27555424 -158.87628994 62.51241514 -132 35 C-131.27296875 34.21109375 -130.5459375 33.4221875 -129.796875 32.609375 C-123.59135046 26.03611567 -116.50278956 20.97185712 -109 16 C-108.05511719 15.3709375 -107.11023438 14.741875 -106.13671875 14.09375 C-75.71320812 -4.84025944 -34.36902574 -10.10257595 0 0 Z " fill="#FF00FF" transform="translate(172,6)"/>
<path d="M0 0 C0.69319336 0.16097168 1.38638672 0.32194336 2.10058594 0.48779297 C18.67326216 4.47949958 34.32053875 11.83753028 48 22 C49.21623047 22.88365234 49.21623047 22.88365234 50.45703125 23.78515625 C80.1424027 46.37289446 97.00710014 78.36429031 102.58984375 114.85546875 C106.82576531 151.69761082 95.8965618 187.52835097 72.97597778 216.41470754 C69.96691027 220.09482158 66.78235629 223.58371708 63.52498055 227.04436684 C62.55860476 228.07221786 62.55860476 228.07221786 61.57270623 229.12083355 C52.80131909 238.39087633 43.75531649 247.3917211 34.72884502 256.41202526 C32.01520734 259.12492064 29.304473 261.84071482 26.59333622 264.55610907 C21.23674888 269.9202129 15.87753243 275.28168264 10.5174653 280.64230905 C4.08919248 287.07150177 -2.33619525 293.50357507 -8.76155636 299.93567753 C-24.27774486 315.46785846 -39.79894849 330.99502373 -55.32073755 346.52160747 C-62.66788176 353.87109285 -70.01439483 361.22120897 -77.36083389 368.57139919 C-102.52820013 393.75159043 -127.69661696 418.93073088 -152.86866951 444.10623741 C-154.44597953 445.68376906 -156.02328948 447.26130079 -157.60059934 448.83883259 C-159.18158912 450.42004301 -160.76257898 452.00125336 -162.34356892 453.58246362 C-165.51501801 456.75435525 -168.68646481 459.92624917 -171.85791016 463.09814453 C-173.03739535 464.27779382 -173.03739535 464.27779382 -174.24070854 465.4812744 C-199.76088409 491.00508393 -225.2749004 516.53503854 -250.78524693 542.06867167 C-277.78426282 569.09228788 -304.78871701 596.11045768 -331.79943836 623.12237418 C-334.76438227 626.08748954 -337.7293042 629.05262689 -340.69421005 632.0177803 C-341.4242058 632.74783182 -342.15420155 633.47788334 -342.90631839 634.23005763 C-354.64409159 645.96898057 -366.37692508 657.71282861 -378.10799379 669.4584511 C-389.89546275 681.26029106 -401.68849417 693.05654987 -413.4871694 704.84718673 C-420.49235609 711.84792136 -427.49336669 718.85277172 -434.48839797 725.86365381 C-439.16562009 730.55064225 -443.84830943 735.23212126 -448.53541064 739.90923025 C-451.20261702 742.57105692 -453.86745676 745.23513447 -456.52564313 747.90597145 C-481.5232966 773.01514443 -481.5232966 773.01514443 -495.8125 780.6875 C-496.47499756 781.04996826 -497.13749512 781.41243652 -497.82006836 781.78588867 C-530.51954504 799.35592938 -567.51150807 803.83584962 -603.33203125 793.47265625 C-633.37293155 784.25662399 -654.42596057 765.04287065 -676.1688652 743.17933166 C-679.13520301 740.19990536 -682.11034421 737.2292907 -685.08436584 734.25753784 C-690.22210055 729.12136786 -695.35436165 723.97978192 -700.48283005 718.83436012 C-707.89752303 711.39517218 -715.32059422 703.96439 -722.74566467 696.53556152 C-734.79531262 684.47936547 -746.83826109 672.41650058 -758.87695312 660.34936523 C-770.56384435 648.63489082 -782.25391665 636.92360584 -793.94824219 625.21655273 C-794.67040398 624.49360277 -795.39256578 623.7706528 -796.13661127 623.02579526 C-799.75989991 619.39859119 -803.38325078 615.77144928 -807.00663257 612.14433825 C-837.01407173 582.10585431 -867.01062117 552.05651405 -897 522 C-903.84026881 527.60665789 -909.99870586 533.86821842 -916.23284912 540.12605286 C-917.47652324 541.37072389 -918.72042146 542.61517103 -919.96452355 543.85941428 C-923.37299039 547.26952259 -926.77833847 550.68273041 -930.18319273 554.0964452 C-933.85972152 557.78141875 -937.53918049 561.46346436 -941.21832275 565.14582825 C-947.5914063 571.52520548 -953.96276466 577.90630149 -960.33306122 584.28846169 C-969.55437112 593.52676345 -978.77940497 602.76133967 -988.00554159 611.9948208 C-1002.98929728 626.99051978 -1017.97154978 641.98771944 -1032.95214844 656.98657227 C-1033.84847017 657.88398412 -1034.74479191 658.78139598 -1035.66827491 659.70600214 C-1048.38468603 672.43801955 -1061.09960169 685.17152937 -1073.81391576 697.90564086 C-1074.70902473 698.80214315 -1075.6041337 699.69864543 -1076.52636719 700.62231445 C-1077.86738844 701.965426 -1077.86738844 701.965426 -1079.23550102 703.3356711 C-1094.15395179 718.27717429 -1109.07627555 733.21480251 -1124.00176644 748.1492731 C-1133.20249515 757.35584792 -1142.39995672 766.56566277 -1151.59321645 775.77969589 C-1157.89589848 782.09610974 -1164.20220646 788.40888818 -1170.51135418 794.71884374 C-1174.14866162 798.35685357 -1177.78432116 801.99647089 -1181.41557312 805.64052582 C-1184.74477876 808.98140732 -1188.07864206 812.31756851 -1191.4161475 815.65015801 C-1192.6177473 816.85160747 -1193.81767504 818.05473223 -1195.01567933 819.25976691 C-1222.11212203 846.5068831 -1254.15634076 864.84043571 -1293.50732422 865.24145508 C-1328.40563398 865.31733039 -1359.22499789 855.93149374 -1386 833 C-1387.32257812 831.89591797 -1387.32257812 831.89591797 -1388.671875 830.76953125 C-1413.93137706 808.89936916 -1429.11007389 776.05081084 -1432 743 C-1434.3534493 704.21242685 -1422.39339932 668.98184998 -1396.6978406 639.87245357 C-1390.81424587 633.38376556 -1384.53855099 627.25794109 -1378.34030151 621.07287598 C-1376.6637123 619.39254411 -1374.98755418 617.71178203 -1373.31178677 616.03063059 C-1369.21173206 611.919678 -1365.1071023 607.8133355 -1361.00042946 603.70899499 C-1356.07510274 598.78595464 -1351.15559168 593.85711773 -1346.23617055 588.92817734 C-1336.03903205 578.71175697 -1325.83509973 568.50214051 -1315.62889032 558.294783 C-1307.7445625 550.40953407 -1299.86183967 542.52268408 -1291.98022842 534.63471985 C-1289.70682811 532.3595243 -1287.43341999 530.08433655 -1285.1600095 527.80915117 C-1284.59474677 527.24344634 -1284.02948403 526.67774151 -1283.44709212 526.09489411 C-1267.5605684 510.19607257 -1251.67184864 494.29944843 -1235.77873039 478.40721893 C-1235.18026116 477.80878085 -1234.58179192 477.21034278 -1233.96518725 476.59377021 C-1230.93227795 473.56102711 -1227.89935271 470.52829995 -1224.86642395 467.49557632 C-1224.2641336 466.89332586 -1223.66184325 466.2910754 -1223.04130167 465.67057493 C-1221.82332582 464.45267995 -1220.60534861 463.23478634 -1219.38737004 462.01689408 C-1200.43989642 443.07064582 -1181.50056074 424.11629543 -1162.56738281 405.15576172 C-1141.26880274 383.82642047 -1119.96343832 362.5038871 -1098.64854348 341.19084883 C-1096.37322786 338.91568245 -1094.09793815 336.64049017 -1091.82266617 334.36528015 C-1091.26248162 333.80511891 -1090.70229707 333.24495767 -1090.12513723 332.66782184 C-1081.13537566 323.67812166 -1072.15202875 314.68203806 -1063.17093244 305.68368189 C-1054.13607705 296.63182341 -1045.09368816 287.58754384 -1036.04377322 278.55074131 C-1031.14743715 273.66111847 -1026.2542509 268.76844837 -1021.37024498 263.86650658 C-1016.89052792 259.37099161 -1012.40151269 254.884976 -1007.90521576 250.40604562 C-1006.28871625 248.79260116 -1004.6755168 247.17584137 -1003.06616126 245.55527097 C-975.61235677 217.92301421 -943.8847559 198.73647917 -904 197 C-903.08347656 196.95875 -902.16695312 196.9175 -901.22265625 196.875 C-863.80415432 196.05374344 -830.05704188 210.5928274 -803.04586697 236.04060388 C-795.11774568 243.6336343 -787.40978577 251.45942637 -779.65506697 259.22886741 C-776.76955537 262.1187383 -773.88111208 265.00567653 -770.99304199 267.89299011 C-766.00205993 272.88345039 -761.01289735 277.87572356 -756.02500153 282.86926842 C-748.81353109 290.08890082 -741.59926777 297.30573719 -734.38434181 304.52191613 C-722.6758176 316.23262351 -710.9695236 327.94555759 -699.26464844 339.65991211 C-687.90124381 351.03250991 -676.53677882 362.4040464 -665.17089844 373.77416992 C-664.11823103 374.82723142 -664.11823103 374.82723142 -663.04429761 375.90156689 C-659.52332165 379.42384797 -656.00232498 382.94610833 -652.481318 386.4683584 C-623.31766504 415.64236107 -594.15763826 444.81998608 -565 474 C-559.84699707 469.68892694 -555.03122654 465.16836532 -550.29609776 460.40517902 C-549.54824159 459.65697872 -548.80038543 458.90877842 -548.02986696 458.13790539 C-545.52545381 455.63112716 -543.02465989 453.12076949 -540.52381897 450.61042786 C-538.71036604 448.79383021 -536.89668418 446.97746106 -535.08279318 445.16130084 C-531.13968162 441.2125712 -527.19840889 437.2620138 -523.25833702 433.31025124 C-517.39887702 427.4334555 -511.53646744 421.55960882 -505.67334382 415.68646843 C-496.41140109 406.40864133 -487.15106589 397.12921187 -477.89174361 387.84876962 C-463.18682091 373.11043432 -448.4761181 358.37787863 -433.763399 343.64732656 C-430.63023913 340.51035588 -427.49713124 337.37333329 -424.36401707 334.23631698 C-420.56042801 330.42799989 -416.75683396 326.61968778 -412.95322402 322.81139154 C-398.61320168 308.45366993 -384.27387414 294.09525459 -369.93530273 279.73608398 C-369.28014946 279.07999402 -368.62499618 278.42390406 -367.94998977 277.74793259 C-346.71371755 256.48119752 -325.48431909 235.20761461 -304.25794935 213.93099632 C-282.42230373 192.04375393 -260.57831051 170.16487403 -238.72437551 148.29589256 C-235.6354037 145.20477988 -232.54653433 142.11356484 -229.45773125 139.02228355 C-228.84986616 138.41393485 -228.24200106 137.80558614 -227.61571582 137.17880262 C-217.84985681 127.40465615 -208.09290894 117.62166097 -198.33939554 107.83519657 C-188.52821428 97.9912086 -178.7079908 88.15631583 -168.87855173 78.33055804 C-163.04609574 72.4997252 -157.22067797 66.66206467 -151.40531124 60.81418673 C-147.05189528 56.43798931 -142.68536027 52.0751033 -138.31377118 47.71706399 C-136.55495173 45.95965678 -134.80031038 44.19805529 -133.05045725 42.43172012 C-97.66909185 6.73580596 -50.44254682 -11.98575853 0 0 Z " fill="#FF00FF" transform="translate(1900,271)"/>
</svg>
