<?xml version="1.0" encoding="UTF-8"?>
<svg version="1.1" xmlns="http://www.w3.org/2000/svg" width="2282" height="2282">
<path d="M0 0 C3.13065699 1.38995212 5.25483162 3.00521323 7.67074847 5.42235148 C8.7485445 6.49340563 8.7485445 6.49340563 9.84811419 7.58609724 C10.63175713 8.37499421 11.41540007 9.16389117 12.22278976 9.97669411 C13.06315012 10.81474677 13.90351047 11.65279943 14.76933628 12.51624763 C17.11120234 14.85371711 19.44847913 17.19561302 21.7839723 19.53943992 C24.32196756 22.08429223 26.86575091 24.62334749 29.40881753 27.16313016 C33.86838916 31.61854946 38.32422095 36.07768193 42.77765083 40.53923988 C49.39978976 47.17343152 56.02763636 53.80189863 62.65668248 60.42918755 C73.80674573 71.5766207 84.95214109 82.72870992 96.09490204 93.88344193 C107.13084041 104.93120624 118.16883713 115.97690727 129.20960236 127.01984787 C129.89556905 127.70595205 130.58153575 128.39205622 131.28828932 129.09895144 C134.77184635 132.58318511 138.25544032 136.06738186 141.73904851 139.55156438 C166.42622477 164.2429437 191.10875885 188.93895874 215.78857422 213.63769531 C239.7676739 237.63515778 263.74886899 261.63052308 287.73291016 285.62304688 C288.47194173 286.3623415 289.2109733 287.10163612 289.97239977 287.86333361 C297.39392537 295.28749621 304.81549365 302.71161613 312.23709322 310.13570478 C327.35632793 325.26001219 342.47527768 340.38460445 357.59405518 355.5093689 C358.28922303 356.20481133 358.98439089 356.90025377 359.70062444 357.61677022 C406.1385229 404.07307623 452.56977778 450.53602223 499 497 C497.64246119 500.03120091 496.12074553 502.12891525 493.77642143 504.47197556 C493.10682126 505.14607032 492.43722109 505.82016507 491.74733001 506.51468694 C491.00816775 507.24859517 490.2690055 507.9825034 489.50744438 508.73865128 C488.7217313 509.52667204 487.93601822 510.31469281 487.12649566 511.12659299 C484.47048945 513.78792801 481.8073599 516.44202059 479.14425659 519.09625244 C477.22763865 521.01262909 475.31253215 522.93051366 473.39735615 524.84833121 C469.22132003 529.02851905 465.04157277 533.20496729 460.85939789 537.37901306 C454.64064425 543.58571246 448.42761731 549.79812056 442.21576693 556.01172799 C431.76703989 566.46308495 421.31365773 576.90977416 410.85763168 587.35382843 C400.50205664 597.69757704 390.14854548 608.04338428 379.79779434 618.39196014 C378.8331032 619.35644506 378.8331032 619.35644506 377.84892335 620.34041453 C374.58293107 623.60573017 371.31697572 626.87108274 368.05103458 630.13644955 C344.90699854 653.27628267 321.7583271 676.41147353 298.60693359 699.54394531 C276.11305168 722.01946407 253.62126728 744.49707845 231.13232422 766.97753906 C230.43934533 767.6702549 229.74636644 768.36297074 229.03238819 769.07667797 C222.07333099 776.03309817 215.11431647 782.98956105 208.15533321 789.94605522 C193.97856881 804.11774694 179.80151955 818.28915369 165.6242981 832.46038818 C164.97242582 833.11198588 164.32055353 833.76358358 163.64892755 834.43492667 C120.10405572 877.96139133 76.55254385 921.48121212 33 965 C29.22195354 963.23787858 26.60293017 960.87851844 23.6975708 957.93807983 C23.17554195 957.41775983 22.6535131 956.89743984 22.1156652 956.36135256 C20.36822077 954.61720154 18.62801915 952.866 16.88769531 951.11474609 C15.63631929 949.86280592 14.38450269 948.61130599 13.13227844 947.36021423 C9.73350249 943.96201266 6.34093305 940.55767499 2.94942951 937.15221739 C-0.59575325 933.59454157 -4.14659148 930.04251966 -7.69683838 926.48989868 C-14.41912898 919.76138913 -21.13630459 913.02779705 -27.85166574 906.29237235 C-35.49700444 898.62468759 -43.14801538 890.96267352 -50.79951239 883.30113482 C-66.53933615 867.54039965 -82.27200897 851.77254276 -98 836 C-102.64365152 839.88295655 -107.05420038 843.91050586 -111.32323307 848.20018524 C-111.9228379 848.79863622 -112.52244274 849.3970872 -113.14021742 850.01367306 C-115.14418337 852.01499833 -117.14456999 854.01986247 -119.14498806 856.02473354 C-120.60353701 857.48284609 -122.06230589 858.94073867 -123.52127448 860.39843133 C-127.54125382 864.41617139 -131.5580998 868.43703153 -135.57445694 872.45839211 C-139.94021047 876.82847852 -144.30887214 881.1956561 -148.67717272 885.56319624 C-156.33662896 893.222119 -163.99424318 900.88287854 -171.65062332 908.5448761 C-179.86571394 916.76597214 -188.08190233 924.98596876 -196.29943657 933.20462227 C-196.81850317 933.72376065 -197.33756976 934.24289904 -197.87236565 934.77776889 C-200.5191268 937.42488493 -203.16590689 940.07198203 -205.8126945 942.71907161 C-224.38294512 961.29150196 -242.95106422 979.86606197 -261.51791232 998.44189377 C-281.08112306 1018.01456959 -300.64552788 1037.58605053 -320.21170235 1057.15576363 C-321.0958753 1058.04009732 -321.0958753 1058.04009732 -321.99791034 1058.94229633 C-328.5841849 1065.52976195 -335.17049902 1072.11718802 -341.75682933 1078.7045979 C-353.93884608 1090.88861424 -366.12069652 1103.07279687 -378.30250645 1115.25702 C-378.91201709 1115.86665092 -379.52152773 1116.47628184 -380.14950839 1117.10438643 C-409.16009737 1146.12071685 -438.16917043 1175.13856265 -467.17789399 1204.15675799 C-469.10277424 1206.08226658 -471.02765525 1208.00777442 -472.95253643 1209.93328209 C-492.92642664 1229.91367654 -512.90022586 1249.89416194 -532.8740107 1269.87466173 C-552.1968714 1289.20401807 -571.51975764 1308.53334888 -590.8427213 1327.8626023 C-592.7668356 1329.78734325 -594.69094915 1331.71208496 -596.61506261 1333.63682676 C-625.59616885 1362.62738634 -654.57772694 1391.61749402 -683.56070042 1420.60618687 C-684.16977777 1421.21538488 -684.77885513 1421.82458289 -685.40638937 1422.45224144 C-697.57504687 1434.62330526 -709.74377035 1446.79430311 -721.9126338 1458.96516102 C-728.49327863 1465.54688542 -735.07389538 1472.1286379 -741.65448189 1478.71042061 C-742.24321215 1479.29925734 -742.83194242 1479.88809407 -743.43851299 1480.49477434 C-762.99623376 1500.05606835 -782.55195364 1519.61936142 -802.10672899 1539.18359982 C-820.62013521 1557.70594582 -839.13506964 1576.2267629 -857.6518903 1594.7456955 C-860.29099764 1597.38510591 -862.93008595 1600.02453535 -865.56916237 1602.66397667 C-866.08649806 1603.18138281 -866.60383376 1603.69878895 -867.13684629 1604.23187406 C-875.33219357 1612.42843297 -883.52584671 1620.62668325 -891.71879268 1628.82564234 C-899.77267366 1636.8853674 -907.82836701 1644.94327649 -915.88587161 1652.99937925 C-920.19691199 1657.30977674 -924.5071426 1661.62097574 -928.81517517 1665.93437957 C-932.73290697 1669.85696751 -936.65292814 1673.7772522 -940.57480103 1677.69569968 C-941.98567154 1679.10614835 -943.39569951 1680.51744042 -944.80478707 1681.92967032 C-957.52225042 1694.67387165 -957.52225042 1694.67387165 -963.49190477 1699.71735232 C-965.79332379 1701.67472856 -967.91012059 1703.80019368 -970.03712463 1705.94378662 C-970.9520015 1706.86306946 -971.86687836 1707.78235229 -972.80947876 1708.72949219 C-973.79562577 1709.72555375 -974.78173917 1710.7216486 -975.76782227 1711.71777344 C-976.82814256 1712.78493877 -977.88872232 1713.85184635 -978.94953918 1714.91851807 C-981.2206369 1717.20286684 -983.49028873 1719.48863893 -985.75891304 1721.77544403 C-989.35947499 1725.4040735 -992.96564581 1729.02709408 -996.57298279 1732.64898682 C-997.81354151 1733.89468853 -999.05409341 1735.14039705 -1000.29463863 1736.38611221 C-1000.91562463 1737.00968377 -1001.53661062 1737.63325532 -1002.17641437 1738.27572298 C-1010.5612113 1746.69640251 -1018.94124133 1755.12178189 -1027.31079102 1763.55761719 C-1032.97309307 1769.26467307 -1038.64270218 1774.96436334 -1044.32041019 1780.65609384 C-1047.31477404 1783.65846289 -1050.30542257 1786.66432254 -1053.28701973 1789.67937469 C-1077.01837446 1813.66939022 -1077.01837446 1813.66939022 -1090 1822 C-1090.8508316 1822.55907043 -1091.70166321 1823.11814087 -1092.57827759 1823.69415283 C-1094.50308623 1824.93928741 -1096.44896141 1826.11002104 -1098.4375 1827.25 C-1099.14084473 1827.65637695 -1099.84418945 1828.06275391 -1100.56884766 1828.48144531 C-1122.31235742 1840.79385955 -1147.87887616 1849.04201011 -1172.98828125 1849.203125 C-1174.09305061 1849.21371445 -1174.09305061 1849.21371445 -1175.22013855 1849.22451782 C-1223.92374105 1849.58537308 -1267.21877573 1834.86487896 -1302.60205078 1800.44140625 C-1325.04196654 1777.88194221 -1339.49041109 1749.75094437 -1347 1719 C-1347.17934082 1718.30632324 -1347.35868164 1717.61264648 -1347.54345703 1716.89794922 C-1352.95674598 1695.2716717 -1352.33929826 1667.61624256 -1347 1646 C-1346.80132324 1645.17081055 -1346.60264648 1644.34162109 -1346.39794922 1643.48730469 C-1340.71864726 1620.38722257 -1330.59661299 1598.82005877 -1316 1580 C-1315.4100045 1579.23021555 -1314.820009 1578.4604311 -1314.21213484 1577.66731985 C-1307.05731927 1568.62272195 -1298.90177576 1560.62681622 -1290.74372005 1552.4976244 C-1289.07854011 1550.83096361 -1287.41379932 1549.16386398 -1285.7494562 1547.49636754 C-1281.65353189 1543.39495992 -1277.55299325 1539.29820771 -1273.45047708 1535.20339461 C-1268.49902884 1530.26070328 -1263.55347829 1525.31212619 -1258.60808118 1520.36338166 C-1249.36706063 1511.11644027 -1240.12132517 1501.87422644 -1230.8730011 1492.63459015 C-1221.50386159 1483.2742131 -1212.13691559 1473.91164909 -1202.77263069 1464.54641533 C-1202.18072985 1463.9544571 -1201.588829 1463.36249887 -1200.97899177 1462.75260251 C-1197.96079032 1459.7340883 -1194.94262444 1456.71553853 -1191.92447112 1453.69697619 C-1170.0898535 1431.85954501 -1148.25040438 1410.02695116 -1126.40838432 1388.19692421 C-1104.77980264 1366.58019005 -1083.15329437 1344.96138496 -1061.52955818 1323.3398037 C-1060.8578452 1322.66815954 -1060.18613223 1321.99651539 -1059.49406431 1321.30451838 C-1053.35894315 1315.17002363 -1047.22384751 1309.03550336 -1041.08878247 1302.90095249 C-1025.83814303 1287.65159179 -1010.58718368 1272.40255105 -995.33600712 1257.15372753 C-994.64152573 1256.45935278 -993.94704434 1255.76497802 -993.23151806 1255.04956161 C-959.45434805 1221.27763381 -925.67349257 1187.50939312 -891.89233398 1153.74145508 C-880.17047851 1142.02418296 -868.44863935 1130.30689453 -856.72686768 1118.58953857 C-855.63637978 1117.49946152 -855.63637978 1117.49946152 -854.52386182 1116.38736272 C-820.72366769 1082.5998583 -786.92609322 1048.80973396 -753.12919363 1015.01893412 C-750.9348947 1012.82503132 -748.74059464 1010.63112965 -746.54629436 1008.4372282 C-732.00447284 993.89804627 -717.46269647 979.35881919 -702.92095031 964.81956188 C-673.98683657 935.89040106 -645.05245764 906.96150548 -616.11789649 878.03279215 C-614.73997782 876.65515196 -613.36205933 875.27751158 -611.98414103 873.89987101 C-549.95864518 811.88688026 -487.9300647 749.87697535 -425.90014648 687.8684082 C-425.31936008 687.28782167 -424.73857367 686.70723513 -424.14018767 686.10905506 C-395.09364679 657.07251496 -366.04692984 628.036151 -337 599 C-338.76212142 595.22195354 -341.12148156 592.60293017 -344.06192017 589.6975708 C-344.58224017 589.17554195 -345.10256016 588.6535131 -345.63864744 588.1156652 C-347.38279846 586.36822077 -349.134 584.62801915 -350.88525391 582.88769531 C-352.13719408 581.63631929 -353.38869401 580.38450269 -354.63978577 579.13227844 C-358.03798734 575.73350249 -361.44232501 572.34093305 -364.84778261 568.94942951 C-368.40545843 565.40424675 -371.95748034 561.85340852 -375.51010132 558.30316162 C-382.23861087 551.58087102 -388.97220295 544.86369541 -395.70762765 538.14833426 C-403.37531241 530.50299556 -411.03732648 522.85198462 -418.69886518 515.20048761 C-434.45960035 499.46066385 -450.22745724 483.72799103 -466 468 C-464.64246119 464.96879909 -463.12074553 462.87108475 -460.77642143 460.52802444 C-460.10682126 459.85392968 -459.43722109 459.17983493 -458.74733001 458.48531306 C-458.00816775 457.75140483 -457.2690055 457.0174966 -456.50744438 456.26134872 C-455.7217313 455.47332796 -454.93601822 454.68530719 -454.12649566 453.87340701 C-451.47048945 451.21207199 -448.8073599 448.55797941 -446.14425659 445.90374756 C-444.22763865 443.98737091 -442.31253215 442.06948634 -440.39735615 440.15166879 C-436.22132003 435.97148095 -432.04157277 431.79503271 -427.85939789 427.62098694 C-421.64064425 421.41428754 -415.42761731 415.20187944 -409.21576693 408.98827201 C-398.76703989 398.53691505 -388.31365773 388.09022584 -377.85763168 377.64617157 C-367.50205664 367.30242296 -357.14854548 356.95661572 -346.79779434 346.60803986 C-346.15466692 345.96504991 -345.51153949 345.32205996 -344.84892335 344.65958547 C-341.58293107 341.39426983 -338.31697572 338.12891726 -335.05103458 334.86355045 C-311.90699854 311.72371733 -288.7583271 288.58852647 -265.60693359 265.45605469 C-243.11305168 242.98053593 -220.62126728 220.50292155 -198.13232422 198.02246094 C-197.43934533 197.3297451 -196.74636644 196.63702926 -196.03238819 195.92332203 C-189.07333099 188.96690183 -182.11431647 182.01043895 -175.15533321 175.05394478 C-160.97856881 160.88225306 -146.80151955 146.71084631 -132.6242981 132.53961182 C-131.97242582 131.88801412 -131.32055353 131.23641642 -130.64892755 130.56507333 C-87.10405572 87.03860867 -43.55254385 43.51878788 0 0 Z " fill="#FF00FF" transform="translate(1352,431)"/>
<path d="M0 0 C1.07118073 0.00406357 1.07118073 0.00406357 2.16400146 0.00820923 C14.0516497 0.0762626 25.29190456 1.15025291 36.75 4.4375 C37.41547852 4.61941895 38.08095703 4.80133789 38.76660156 4.98876953 C51.94863616 8.66358187 64.06508438 14.81641335 75.5 22.25 C76.32951172 22.78016724 76.32951172 22.78016724 77.17578125 23.32104492 C90.91065917 32.58850243 102.41989057 45.91359837 114.09375 57.54296875 C115.00553513 58.45067835 115.91732025 59.35838795 116.85673523 60.2936039 C121.1850375 64.60329619 125.51132676 68.9149879 129.83453417 73.22979087 C134.77036054 78.1558533 139.71436294 83.07351481 144.66546583 87.98422164 C149.00018031 92.28481505 153.32356201 96.59664857 157.64326477 100.91231728 C159.46087988 102.72510791 161.28182844 104.53456342 163.10636902 106.34038353 C176.01547003 119.12516141 188.78494038 132.23241081 197.0625 148.625 C197.66203491 149.79156128 197.66203491 149.79156128 198.27368164 150.98168945 C201.19714727 156.87372326 203.57080433 162.90073655 205.6875 169.125 C205.95796143 169.91865967 206.22842285 170.71231934 206.50708008 171.5300293 C210.71456163 184.74458864 212.31544502 197.82356507 212.1875 211.625 C212.18243942 212.69575775 212.18243942 212.69575775 212.17727661 213.78814697 C211.93497414 249.39224019 198.90989279 280.36005315 174.57335472 306.2077713 C173.6782677 307.16182788 173.6782677 307.16182788 172.76509812 308.13515833 C164.4224685 316.96942546 155.79803084 325.52758601 147.20132446 334.11315918 C145.24754948 336.06753449 143.29452627 338.02266048 141.34146345 339.97774744 C137.11847384 344.20432318 132.89366031 348.42906859 128.66759491 352.65256882 C122.38334583 358.93301389 116.10198458 365.21634145 109.82116052 371.50021151 C98.60134852 382.72527279 87.37869672 393.9474914 76.15481245 405.16848067 C66.33671762 414.98405563 56.51955807 424.80056482 46.70331955 434.61799622 C46.05108722 435.27030493 45.3988549 435.92261364 44.72685795 436.59468928 C42.07902288 439.24283571 39.43119134 441.89098565 36.7833656 444.5391414 C11.97469964 469.35086248 -12.8368749 494.15967315 -37.64976235 518.96717245 C-59.68741713 541.00007814 -81.72247999 563.03557285 -103.75537109 585.07324219 C-128.52934215 609.85256803 -153.30492808 634.63027739 -178.0831219 659.40538073 C-180.72415582 662.04609394 -183.36518581 664.68681109 -186.00621414 667.32752991 C-186.65647078 667.97770747 -187.30672742 668.62788503 -187.9766888 669.29776494 C-197.79201367 679.11195279 -207.606105 688.92737301 -217.41959763 698.74339294 C-228.57352819 709.90018175 -239.72924216 721.05518386 -250.8873152 732.20782977 C-257.13049766 738.44807573 -263.37230385 744.68969084 -269.61213109 750.93329184 C-273.78062011 755.10402376 -277.95092624 759.27293287 -282.12271162 763.4403676 C-284.49898821 765.8142668 -286.87419662 768.18920839 -289.2477601 770.56582206 C-291.80731644 773.12841556 -294.36992798 775.68791498 -296.93332481 778.24666595 C-297.66555789 778.9812402 -298.39779096 779.71581444 -299.15221292 780.4726485 C-327.38146848 808.59962312 -361.38059675 824.35863706 -401.58789062 824.48095703 C-446.01207735 823.75576396 -478.271843 801.92660097 -508.68281531 771.44059277 C-510.65276381 769.4675085 -512.62735502 767.49910133 -514.60186416 765.53058267 C-519.26847983 760.87791093 -523.92739003 756.21762559 -528.58129883 751.55224609 C-533.34230009 746.77976801 -538.11594276 742.02021281 -542.89605683 737.26688457 C-547.03886097 733.14640646 -551.17367389 729.0180244 -555.30241233 724.88345265 C-557.7512871 722.43124783 -560.20279001 719.98185138 -562.66205406 717.54006195 C-575.70349183 704.57023638 -588.15246124 691.676692 -596.5625 675.125 C-596.96927979 674.33649658 -597.37605957 673.54799316 -597.79516602 672.7355957 C-604.00877924 660.31948483 -607.86876981 647.09102848 -610.25 633.4375 C-610.52650391 631.9215625 -610.52650391 631.9215625 -610.80859375 630.375 C-614.73453138 595.35424662 -606.72061447 558.8760221 -584.91798292 530.71715286 C-583.52433399 529.02110763 -582.10209766 527.35651847 -580.6586132 525.70267105 C-579.82786466 524.74936284 -579.82786466 524.74936284 -578.98033332 523.77679588 C-571.27710686 515.06539569 -563.00172586 506.90152309 -554.77310524 498.69126741 C-552.28565449 496.20712934 -549.80405111 493.71715979 -547.3216418 491.22798562 C-542.98361284 486.87972011 -538.64193592 482.5351248 -534.29775238 478.19300842 C-527.83756245 471.73588496 -521.38310617 465.27305225 -514.9296715 458.80917829 C-502.73119167 446.59141565 -490.52591624 434.38045704 -478.31836571 422.17175838 C-468.89087609 412.7433479 -459.46499062 403.31333655 -450.04021835 393.88220978 C-447.32244767 391.1626439 -444.6046692 388.4430858 -441.88688838 385.72353005 C-440.87329751 384.70927604 -440.87329751 384.70927604 -439.83923005 383.67453204 C-420.84904344 364.67204808 -401.85666115 345.67176093 -382.85988045 326.67586899 C-382.14454685 325.96056654 -381.42921324 325.2452641 -380.69220287 324.50828582 C-377.0669719 320.88322106 -373.441725 317.25817224 -369.81647457 313.63312694 C-369.09654427 312.91323654 -368.37661397 312.19334613 -367.6348676 311.45164086 C-366.17899715 309.99585127 -364.72312533 308.54006305 -363.26725215 307.08427619 C-340.60705184 284.42530188 -317.95499318 261.75821584 -295.30908203 239.08496094 C-269.84128656 213.58642678 -244.36672802 188.09467535 -218.88262928 162.61243463 C-216.16420072 159.89415533 -213.44579809 157.17585011 -210.72741318 154.45752716 C-210.05811789 153.78825519 -209.38882261 153.11898321 -208.69924565 152.42943027 C-197.94437681 141.67462289 -187.19592821 130.91342133 -176.44971581 120.14996526 C-165.64743872 109.33071339 -154.8376637 98.51899746 -144.02033056 87.71479866 C-137.60054653 81.30239011 -131.18630935 74.88455039 -124.78004803 68.45863145 C-120.4931804 64.15972603 -116.19900013 59.86821665 -111.89896154 55.58248595 C-109.45407287 53.14532795 -107.01232197 50.70525531 -104.5794685 48.25607821 C-91.93143716 35.5397612 -79.24600375 23.42357349 -63.125 15.1875 C-62.34278076 14.78329834 -61.56056152 14.37909668 -60.75463867 13.96264648 C-54.84624631 11.01458358 -48.81218531 8.62192736 -42.5625 6.5 C-41.7689209 6.22961914 -40.9753418 5.95923828 -40.15771484 5.68066406 C-26.91932752 1.46468521 -13.82548051 -0.12425622 0 0 Z " fill="#FF00FF" transform="translate(1068.25,1.5625)"/>
<path d="M0 0 C33.69533339 -0.87320224 67.99562626 11.31259913 92.79997253 34.24774551 C98.86208691 40.03332113 104.78682784 45.95814505 110.70500088 51.89018655 C112.77201918 53.96033277 114.84366875 56.02581472 116.91524816 58.09139508 C121.80854526 62.97073344 126.69411755 67.85770901 131.57470703 72.74975586 C136.57713638 77.76367016 141.59222726 82.76465526 146.61376929 87.75942165 C150.9577713 92.08114259 155.29383412 96.41071947 159.62378716 100.74651593 C162.19556749 103.32163605 164.77002409 105.8939083 167.35216522 108.45864296 C187.70464258 128.68675497 187.70464258 128.68675497 194.5 140.12109375 C194.98228058 140.88943039 195.46456116 141.65776703 195.9614563 142.4493866 C213.76201953 170.90481944 219.82015158 208.32071781 212.59375 241.140625 C212.2387842 242.4700532 211.87346261 243.79674269 211.5 245.12109375 C211.27957031 245.91950684 211.05914063 246.71791992 210.83203125 247.54052734 C202.77928986 275.81566228 187.40995355 296.38593698 166.8416338 316.91368103 C166.01489394 317.74277312 165.18815408 318.57186521 164.3363615 319.4260813 C162.06134228 321.70657219 159.78414751 323.9848631 157.50596865 326.26219673 C155.02023938 328.74809703 152.53738911 331.23687024 150.05414933 333.72525692 C145.13773811 338.65095034 140.21866723 343.57397961 135.29875218 348.49617304 C129.40209653 354.39580208 123.50830902 360.29829337 117.61453678 366.20080271 C103.37499635 380.46113819 89.13031285 394.7163316 74.88478432 408.97068478 C68.14276079 415.7169204 61.40124199 422.46366031 54.65973826 429.21041537 C31.57091191 452.31712435 8.48064237 475.42239028 -14.61340618 498.52388 C-16.06181191 499.97276049 -17.51021707 501.42164154 -18.95862167 502.87052315 C-19.67687282 503.58901068 -20.39512397 504.3074982 -21.1351403 505.04775808 C-24.77393785 508.68775678 -28.41272823 512.32776263 -32.05151367 515.96777344 C-32.77363062 516.69013053 -33.49574756 517.41248763 -34.23974684 518.15673433 C-57.66031818 541.58520124 -81.07310412 565.02142824 -104.48137192 588.46218763 C-129.24623558 613.26136298 -154.01839838 638.05322437 -178.79877788 662.83689594 C-181.51978368 665.55831927 -184.24075846 668.27977361 -186.96170998 671.00125122 C-187.63165868 671.67132312 -188.30160739 672.34139502 -188.99185758 673.03177213 C-199.76224869 683.80449306 -210.52596641 694.58385794 -221.28727141 705.3656545 C-232.10579312 716.20444952 -242.93170645 727.0358176 -253.76511803 737.85973048 C-260.19622663 744.28563079 -266.62175253 750.71699605 -273.03929669 757.15644382 C-277.33256472 761.46325304 -281.63313265 765.76268161 -285.93957361 770.05631878 C-288.38902024 772.49889113 -290.83530197 774.94440378 -293.27269956 777.39900482 C-306.113205 790.31338717 -318.58443123 801.60158163 -334.9375 809.93359375 C-335.83654053 810.39515869 -336.73558105 810.85672363 -337.66186523 811.33227539 C-345.10916713 815.07353304 -352.41256453 818.01205 -360.5 820.12109375 C-361.1815918 820.3128418 -361.86318359 820.50458984 -362.56542969 820.70214844 C-383.13138012 826.35801547 -408.90703324 826.92824217 -429.5 821.12109375 C-430.29841309 820.90066406 -431.09682617 820.68023438 -431.91943359 820.453125 C-464.70073343 811.11703056 -486.50763768 791.27148264 -510.09765625 767.69140625 C-511.90019212 765.89208957 -513.7028006 764.09284564 -515.50547791 762.29367065 C-519.27015717 758.53495458 -523.03281018 754.7742243 -526.79418945 751.01220703 C-531.11581263 746.68998309 -535.44298703 742.37337277 -539.77279288 738.05934727 C-543.97181741 733.87507063 -548.16520563 729.68517638 -552.35656548 725.49322128 C-554.12541469 723.72554471 -555.89586841 721.95947209 -557.66801643 720.19510269 C-582.74674679 695.21621037 -601.12055409 669.6390899 -607.5 634.12109375 C-607.7784375 632.61482422 -607.7784375 632.61482422 -608.0625 631.078125 C-611.93021478 596.0960261 -604.55972526 559.86860653 -582.60887851 531.71309054 C-576.46283439 524.15906287 -569.69785842 517.17120173 -562.81039906 510.29727173 C-561.98028245 509.46480289 -561.15016584 508.63233406 -560.29489419 507.77463889 C-558.01040478 505.48467748 -555.72373943 503.19691635 -553.43609024 500.91011235 C-550.94009492 498.41394603 -548.44697855 495.91490682 -545.95347279 493.41625404 C-541.01665675 488.47015551 -536.07718077 483.52672138 -531.13686074 478.58412302 C-525.21578276 472.66007172 -519.29757291 466.73315814 -513.37937843 460.80622643 C-499.08080163 446.48685426 -484.77708146 432.17262446 -470.47251638 417.85923478 C-463.70258838 411.08509473 -456.93316513 404.31045037 -450.16375698 397.53579085 C-426.97949011 374.33364132 -403.79378006 351.13293486 -380.60429096 327.93600464 C-379.14989006 326.48112898 -377.69548972 325.02625276 -376.24108995 323.57137597 C-375.51986561 322.84991525 -374.79864128 322.12845454 -374.05556166 321.38513138 C-370.4016994 317.73006797 -366.74784429 314.0749974 -363.09399414 310.41992188 C-362.00633419 309.3319017 -362.00633419 309.3319017 -360.89670132 308.22190133 C-337.3791264 284.69643082 -313.86933681 261.16320017 -290.36406538 237.62543717 C-265.49674447 212.72380482 -240.62212462 187.82948616 -215.73928803 162.94335747 C-213.00704826 160.21070017 -210.27483952 157.47801187 -207.54265404 154.74530029 C-206.86993903 154.07246209 -206.19722402 153.39962389 -205.50412371 152.70639665 C-194.68910064 141.88904374 -183.880751 131.06504675 -173.07481391 120.23861831 C-162.21148375 109.35501518 -151.34076231 98.47883851 -140.46254239 87.61011744 C-134.00477239 81.15755586 -127.5525853 74.69952867 -121.10837947 68.23341984 C-116.79733948 63.90883918 -112.47900018 59.59163825 -108.15478729 55.28022962 C-105.69519024 52.82750719 -103.23875858 50.37184305 -100.79121009 47.90709233 C-90.93007261 37.98945778 -81.33553691 28.65634423 -69.5 21.12109375 C-68.71946882 20.61559683 -67.93893764 20.11009991 -67.134754 19.5892849 C-46.93111153 6.72871641 -23.70671271 1.1482939 0 0 Z " fill="#FF00FF" transform="translate(2065.5,1000.87890625)"/>
</svg>
