<?xml version="1.0" encoding="UTF-8"?>
<svg version="1.1" xmlns="http://www.w3.org/2000/svg" width="1871" height="1871">
<path d="M0 0 C2.32901686 -0.00209255 4.65803307 -0.00505967 6.98704785 -0.00880873 C13.33728702 -0.0165326 19.68746464 -0.01197105 26.0377027 -0.00525283 C32.2486436 0.0003215 38.45958 -0.00561714 44.67051998 -0.01020693 C57.51233404 -0.01936125 70.35413219 -0.01912933 83.19594765 -0.01364517 C96.19558344 -0.00812757 109.19520878 -0.00699406 122.1948452 -0.01111984 C123.01830045 -0.01137819 123.8417557 -0.01163653 124.69016414 -0.01190271 C128.0443982 -0.01296934 131.39863225 -0.01406677 134.75286629 -0.01520326 C165.93942557 -0.02576243 197.12597786 -0.02650796 228.31253815 -0.02090836 C229.69658233 -0.02065997 229.69658233 -0.02065997 231.108587 -0.02040657 C232.03277255 -0.02024071 232.9569581 -0.02007485 233.90914927 -0.01990396 C262.09411967 -0.01485247 290.27908717 -0.01355719 318.46405792 -0.01594925 C320.35333124 -0.01610421 322.24260456 -0.01625852 324.13187787 -0.01641219 C331.7245737 -0.01703315 339.31726953 -0.01767049 346.90996535 -0.01833172 C368.13312263 -0.0201655 389.35627991 -0.02130687 410.57943726 -0.02190399 C412.02897194 -0.02194493 412.02897194 -0.02194493 413.50779015 -0.02198669 C444.28825967 -0.02280494 475.06872818 -0.02055309 505.84919739 -0.01620483 C506.847157 -0.01606434 507.84511662 -0.01592384 508.87331744 -0.01577908 C525.0783157 -0.01348934 541.28331394 -0.01105034 557.48831218 -0.00859874 C621.75443574 0.00111352 686.02055097 0.00066273 750.2866745 -0.00905991 C766.48360697 -0.0115024 782.68053943 -0.01392454 798.87747192 -0.01620483 C800.37354045 -0.01641618 800.37354045 -0.01641618 801.89983259 -0.01663179 C832.64896588 -0.02094581 863.39809847 -0.0227724 894.14723206 -0.02190399 C895.11287393 -0.02187682 896.07851579 -0.02184965 897.07341954 -0.02182166 C918.27321671 -0.02119664 939.47301381 -0.01992922 960.67281091 -0.01808299 C968.25861427 -0.01742474 975.84441763 -0.01679857 983.43022099 -0.01618156 C985.31727552 -0.01602679 987.20433006 -0.01586933 989.0913846 -0.01570917 C1017.26695172 -0.01332448 1045.44251559 -0.01535003 1073.61808231 -0.02040657 C1074.54077843 -0.02057216 1075.46347455 -0.02073775 1076.41413116 -0.02090836 C1077.33511619 -0.02107372 1078.25610123 -0.02123909 1079.20499489 -0.02140946 C1110.30378568 -0.02693225 1141.40256808 -0.02488381 1172.50135767 -0.01434687 C1175.84484648 -0.01324222 1179.18833529 -0.01216881 1182.53182411 -0.01111984 C1183.35234226 -0.01085943 1184.17286041 -0.01059902 1185.01824274 -0.01033071 C1197.97951164 -0.00639503 1210.94077006 -0.00912268 1223.902038 -0.01465785 C1236.66486365 -0.019965 1249.42767174 -0.01806121 1262.19049518 -0.00862968 C1269.00979312 -0.00378174 1275.82904934 -0.00222718 1282.64834648 -0.00944164 C1288.86501103 -0.01595129 1295.08160153 -0.0130874 1301.29826079 -0.00308032 C1303.52057069 -0.00108364 1305.74288689 -0.00235098 1307.96519174 -0.0074922 C1384.96462658 -0.17283476 1455.23303082 25.7376638 1510.17583466 80.31418228 C1516.50211815 86.67662724 1522.42019699 93.1115664 1527.86333466 100.25168228 C1528.64450653 101.22750259 1529.42567841 102.20332291 1530.23052216 103.20871353 C1554.72338722 133.95221161 1570.89555266 169.8715878 1580.05083466 207.93918228 C1580.28898895 208.90452896 1580.52714325 209.86987564 1580.77251434 210.86447525 C1585.57697965 231.72987051 1586.31365325 252.75437862 1586.25550866 274.07751191 C1586.24859945 277.84240683 1586.25925684 281.60726362 1586.26744843 285.37215042 C1586.28066358 292.71195586 1586.27796341 300.05166836 1586.2692105 307.39147718 C1586.2623861 313.36563784 1586.26153756 319.33977278 1586.26478195 325.31393623 C1586.26524165 326.16995656 1586.26570135 327.02597688 1586.26617498 327.90793721 C1586.26713432 329.64787258 1586.26810697 331.38780794 1586.26909275 333.1277433 C1586.27761071 349.37440315 1586.26786906 365.62101191 1586.25169165 381.86766338 C1586.23828935 395.75651878 1586.24062287 409.64529893 1586.25444794 423.53415298 C1586.27056352 439.73126553 1586.27678959 455.92833349 1586.26761115 472.12545294 C1586.26665567 473.85804998 1586.26571256 475.59064704 1586.26478195 477.32324409 C1586.26431913 478.17533041 1586.2638563 479.02741673 1586.26337945 479.90532385 C1586.2608076 485.86100339 1586.26512114 491.81665424 1586.27222061 497.77232933 C1586.28070257 505.04640287 1586.27821667 512.32037952 1586.26237838 519.5944422 C1586.25458486 523.2936242 1586.25124796 526.99264567 1586.26132584 530.69182587 C1586.31294742 551.34204517 1585.23602681 571.55634582 1580.61333466 591.75168228 C1580.40353973 592.68415787 1580.19374481 593.61663345 1579.97759247 594.57736588 C1575.73113946 612.87755621 1569.80228451 630.23174511 1561.86333466 647.25168228 C1561.47274872 648.09327896 1561.08216278 648.93487564 1560.67974091 649.80197525 C1549.70247915 673.20063853 1535.46577512 694.32207368 1517.86333466 713.25168228 C1516.73411346 714.56055231 1515.60897526 715.87295818 1514.48833466 717.18918228 C1507.4784739 725.20045171 1499.91856328 732.46218977 1491.58599091 739.08371353 C1489.82034541 740.48964359 1488.07629643 741.92330461 1486.35942841 743.38840103 C1444.9402418 778.6105185 1386.26176841 801.51245844 1331.80562669 801.37933278 C1330.35431844 801.38180895 1330.35431844 801.38180895 1328.87369084 801.38433514 C1325.63602848 801.38864432 1322.39841197 801.38586379 1319.16074848 801.38311005 C1316.80426831 801.38476043 1314.44778842 801.38684704 1312.09130898 801.38933015 C1306.27738669 801.39431219 1300.46347698 801.39464701 1294.64955308 801.39304114 C1287.63523886 801.3913673 1280.620931 801.3955136 1273.60661833 801.39981658 C1260.49778756 801.40768458 1247.38895952 801.41077835 1234.28012657 801.41126251 C1220.99522138 801.41176499 1207.71031923 801.41441286 1194.42541504 801.4196701 C1193.1667886 801.42016531 1193.1667886 801.42016531 1191.88273537 801.42067051 C1188.46525059 801.42202052 1185.04776581 801.42338319 1181.63028105 801.42476262 C1141.17357125 801.44106346 1100.71686204 801.4474511 1060.26014952 801.45221048 C1040.11303266 801.45459399 1019.96591613 801.45829753 999.81879952 801.46224758 C935.1868665 801.4749122 870.5549335 801.48569585 805.92299925 801.48908804 C802.83403657 801.48925028 799.74507388 801.48941584 796.65611119 801.48958242 C790.46119061 801.48991622 784.26627003 801.4902467 778.07134944 801.49057698 C770.8186668 801.49096388 763.56598416 801.49135349 756.31330151 801.49174805 C754.23752807 801.49186047 752.16175463 801.49197188 750.08598118 801.4920823 C683.42770891 801.49563128 616.76944742 801.51070777 550.11117926 801.53402004 C502.2120704 801.55076493 454.31296357 801.5662381 406.41385174 801.570755 C404.93579673 801.57089523 404.93579673 801.57089523 403.42788203 801.5710383 C381.79489326 801.57305749 360.16190453 801.57421341 338.52891568 801.57456688 C330.78781169 801.57470305 323.04670771 801.57491204 315.30560373 801.57516013 C313.37983695 801.57522169 311.45407016 801.57528001 309.52830338 801.57533508 C278.86023659 801.57625436 248.19218107 801.58621606 217.52411799 801.60079257 C186.62645643 801.61541941 155.72880868 801.62044368 124.83114427 801.61237303 C120.55725223 801.61125772 116.28336016 801.61024704 112.00946808 801.60929871 C111.17170342 801.60910874 110.33393876 801.60891877 109.4707873 801.60872305 C96.22974021 801.60599421 82.98871874 801.61331589 69.74767722 801.62487207 C56.71312789 801.63603743 43.67861461 801.63641961 30.64406469 801.62550189 C23.67753492 801.61995766 16.71108579 801.61899748 9.74456362 801.63201061 C3.39644481 801.64340121 -2.95151371 801.64076858 -9.29962714 801.62734354 C-11.5717913 801.62492463 -13.84396802 801.62743959 -16.11611831 801.63574001 C-34.84588342 801.69961789 -53.33647985 800.19057629 -71.63666534 796.00168228 C-72.56914093 795.79188736 -73.50161652 795.58209244 -74.46234894 795.36594009 C-92.76253928 791.11948709 -110.11672817 785.19063214 -127.13666534 777.25168228 C-127.97826202 776.86109634 -128.8198587 776.47051041 -129.68695831 776.06808853 C-153.08562159 765.09082678 -174.20705675 750.85412275 -193.13666534 733.25168228 C-194.44553537 732.12246108 -195.75794124 730.99732288 -197.07416534 729.87668228 C-205.08543477 722.86682153 -212.34717284 715.30691091 -218.96869659 706.97433853 C-220.37462665 705.20869304 -221.80828767 703.46464405 -223.27338409 701.74777603 C-254.90683252 664.54865804 -274.32289784 615.40529093 -280.13666534 567.25168228 C-280.26705015 566.19257761 -280.26705015 566.19257761 -280.400069 565.11207688 C-281.17687721 558.18575299 -281.28227204 551.330797 -281.27710724 544.36590958 C-281.28007836 543.10023057 -281.28304948 541.83455157 -281.28611064 540.53051865 C-281.29411709 537.04215172 -281.29596664 533.55380543 -281.29670811 530.0654304 C-281.29856995 526.29278188 -281.30612309 522.52014379 -281.31284332 518.74750137 C-281.32638417 510.50707693 -281.33244536 502.26665738 -281.33685398 494.02622366 C-281.33962488 488.86969749 -281.34386386 483.71317317 -281.34835815 478.55664825 C-281.36054767 464.24930502 -281.37084605 449.94196326 -281.37423325 435.63461494 C-281.37445281 434.72010893 -281.37467238 433.80560292 -281.3748986 432.86338461 C-281.37511688 431.94681286 -281.37533515 431.03024112 -281.37556005 430.08589447 C-281.37600349 428.22888493 -281.37645006 426.3718754 -281.37689972 424.51486588 C-281.37712115 423.59374453 -281.37734258 422.67262319 -281.37757072 421.72358908 C-281.38151104 406.82860569 -281.39894303 391.93367144 -281.42225924 377.038707 C-281.44606419 361.70626434 -281.45843932 346.37384623 -281.45960116 331.04138482 C-281.46051306 322.44912227 -281.46614145 313.85692371 -281.48442078 305.26467896 C-281.49994609 297.94163201 -281.50487014 290.61866881 -281.49668267 283.29560851 C-281.49281892 279.57006242 -281.49349137 275.84468428 -281.50774002 272.1191597 C-281.58520536 250.62721021 -280.59725451 229.40706824 -275.51166534 208.43918228 C-275.25860626 207.37844498 -275.00554718 206.31770767 -274.74481964 205.22482681 C-265.1620502 166.46734282 -247.89943251 129.90130952 -222.13666534 99.25168228 C-221.30264191 98.23332291 -220.46861847 97.21496353 -219.60932159 96.16574478 C-208.16309277 82.35181625 -195.49066821 69.05476035 -181.13666534 58.25168228 C-180.50309113 57.75813248 -179.86951691 57.26458267 -179.21674347 56.75607681 C-126.83461597 15.95429568 -65.60496998 -0.15177462 0 0 Z M809.38872528 336.48068619 C795.21189356 352.94015119 786.73631357 374.5410762 785.86333466 396.25168228 C785.82337372 397.00965103 785.78341278 397.76761978 785.74224091 398.54855728 C785.03749705 423.91933619 794.49298889 449.73773724 811.86333466 468.25168228 C812.88813934 469.39443619 812.88813934 469.39443619 813.93364716 470.56027603 C829.6148527 487.25410555 852.64423437 498.97266233 875.66143036 500.42868423 C889.56983977 500.7248589 902.59157213 500.72668766 915.86333466 496.25168228 C916.50802704 496.03737564 917.15271942 495.823069 917.81694794 495.60226822 C943.20248024 486.89757109 963.66778225 468.66549434 975.61724091 444.73996353 C986.7230793 419.8840395 988.94996591 391.80555645 979.35552216 366.08761978 C968.80045614 339.57883104 948.96644725 320.06317608 922.98833466 308.50168228 C912.42570286 304.32739789 901.22475021 301.67247545 889.86333466 301.25168228 C889.15563934 301.21172134 888.44794403 301.17176041 887.71880341 301.13058853 C857.43746422 300.17551846 829.42261812 314.46440136 809.38872528 336.48068619 Z M1144.97661591 333.79855728 C1125.35607854 356.57433818 1118.10676 383.55743386 1119.86333466 413.25168228 C1122.82415981 439.19139922 1136.59902204 462.7345453 1156.52178192 479.30221939 C1178.71925648 496.90288605 1206.74174275 502.94035682 1234.55962372 499.96310806 C1259.41505135 496.25222758 1282.80849006 481.8805581 1298.24614716 462.21652603 C1315.13800107 438.65382133 1321.93927627 412.17216186 1317.27373505 383.46506119 C1312.66809767 357.58821181 1297.83987115 334.42711341 1276.41704559 319.14133072 C1260.83362763 308.58113906 1242.76985258 302.03660992 1223.86333466 301.25168228 C1223.19044403 301.21172134 1222.51755341 301.17176041 1221.82427216 301.13058853 C1192.67946784 300.20275768 1164.94778825 312.91462568 1144.97661591 333.79855728 Z " fill="#FF00FF" transform="translate(283.1366653442383,1067.7483177185059)"/>
<path d="M0 0 C0.96753883 -0.00165078 1.93507766 -0.00330156 2.93193585 -0.00500236 C6.16959821 -0.00931154 9.40721473 -0.00653101 12.64487821 -0.00377727 C15.00135838 -0.00542764 17.35783827 -0.00751426 19.71431771 -0.00999737 C25.52824 -0.0149794 31.34214971 -0.01531423 37.15607361 -0.01370835 C44.17038783 -0.01203452 51.18469569 -0.01618082 58.19900836 -0.0204838 C71.30783913 -0.0283518 84.41666717 -0.03144557 97.52550012 -0.03192973 C110.81040531 -0.03243221 124.09530746 -0.03508008 137.38021165 -0.04033732 C138.63883809 -0.04083252 138.63883809 -0.04083252 139.92289132 -0.04133773 C143.3403761 -0.04268774 146.75786088 -0.0440504 150.17534565 -0.04542983 C190.63205544 -0.06173068 231.08876465 -0.06811832 271.54547717 -0.0728777 C291.69259403 -0.07526121 311.83971056 -0.07896475 331.98682717 -0.0829148 C396.61876019 -0.09557942 461.25069319 -0.10636307 525.88262744 -0.10975526 C528.97159012 -0.1099175 532.06055281 -0.11008306 535.1495155 -0.11024964 C541.34443608 -0.11058344 547.53935666 -0.11091392 553.73427725 -0.1112442 C560.98695989 -0.1116311 568.23964253 -0.11202071 575.49232518 -0.11241527 C577.56809862 -0.11252769 579.64387206 -0.1126391 581.71964551 -0.11274952 C648.37791778 -0.1162985 715.03617927 -0.13137499 781.69444743 -0.15468726 C829.59355629 -0.17143215 877.49266312 -0.18690532 925.39177495 -0.19142222 C926.37714496 -0.19151571 927.36251496 -0.1916092 928.37774467 -0.19170551 C950.01073343 -0.19372471 971.64372216 -0.19488063 993.27671101 -0.1952341 C1001.017815 -0.19537027 1008.75891898 -0.19557926 1016.50002296 -0.19582735 C1018.42578974 -0.19588891 1020.35155653 -0.19594723 1022.27732331 -0.1960023 C1052.9453901 -0.19692158 1083.61344562 -0.20688328 1114.2815087 -0.22145979 C1145.17917026 -0.23608663 1176.07681801 -0.2411109 1206.97448242 -0.23304025 C1211.24837446 -0.23192494 1215.52226653 -0.23091426 1219.79615861 -0.22996593 C1220.63392327 -0.22977596 1221.47168793 -0.22958599 1222.33483939 -0.22939027 C1235.57588648 -0.22666143 1248.81690795 -0.23398311 1262.05794947 -0.24553929 C1275.0924988 -0.25670465 1288.12701208 -0.25708683 1301.161562 -0.24616911 C1308.12809177 -0.24062488 1315.0945409 -0.23966469 1322.06106307 -0.25267783 C1328.40918188 -0.26406843 1334.7571404 -0.2614358 1341.10525383 -0.24801075 C1343.37741799 -0.24559185 1345.64959471 -0.24810681 1347.921745 -0.25640723 C1366.65151011 -0.32028511 1385.14210654 1.18875649 1403.44229203 5.3776505 C1404.84100541 5.69234288 1404.84100541 5.69234288 1406.26797563 6.01339269 C1424.56816597 10.25984569 1441.92235486 16.18870064 1458.94229203 24.1276505 C1459.78388871 24.51823644 1460.62548539 24.90882237 1461.492585 25.31124425 C1484.89124828 36.28850601 1506.01268344 50.52521003 1524.94229203 68.1276505 C1526.25116206 69.2568717 1527.56356793 70.3820099 1528.87979203 71.5026505 C1536.89106147 78.51251125 1544.15279953 86.07242188 1550.77432328 94.40499425 C1552.18025334 96.17063974 1553.61391436 97.91468873 1555.07901078 99.63155675 C1586.71245921 136.83067474 1606.12852453 185.97404185 1611.94229203 234.1276505 C1612.02921524 234.83372028 1612.11613845 235.53979007 1612.20569569 236.2672559 C1612.9825039 243.1935798 1613.08789873 250.04853578 1613.08273393 257.0134232 C1613.08719061 258.91194171 1613.08719061 258.91194171 1613.09173733 260.84881413 C1613.09974378 264.33718106 1613.10159333 267.82552735 1613.1023348 271.31390238 C1613.10419664 275.0865509 1613.11174978 278.85918899 1613.11847001 282.63183141 C1613.13201086 290.87225585 1613.13807205 299.11267541 1613.14248067 307.35310912 C1613.14525157 312.50963529 1613.14949055 317.66615961 1613.15398484 322.82268453 C1613.16617436 337.13002776 1613.17647274 351.43736952 1613.17985994 365.74471784 C1613.1800795 366.65922385 1613.18029907 367.57372986 1613.18052529 368.51594817 C1613.18074357 369.43251992 1613.18096184 370.34909167 1613.18118674 371.29343832 C1613.18163019 373.15044785 1613.18207675 375.00745738 1613.18252641 376.86446691 C1613.18274784 377.78558825 1613.18296927 378.70670959 1613.18319741 379.6557437 C1613.18713773 394.5507271 1613.20456972 409.44566134 1613.22788593 424.34062578 C1613.25169088 439.67306844 1613.26406601 455.00548655 1613.26522785 470.33794796 C1613.26613975 478.93021051 1613.27176815 487.52240907 1613.29004747 496.11465383 C1613.30557278 503.43770077 1613.31049683 510.76066397 1613.30230936 518.08372428 C1613.29844561 521.80927036 1613.29911806 525.5346485 1613.31336671 529.26017308 C1613.39083205 550.75212257 1612.4028812 571.97226454 1607.31729203 592.9401505 C1607.06423295 594.0008878 1606.81117387 595.06162511 1606.55044633 596.15450597 C1596.96767689 634.91198996 1579.7050592 671.47802327 1553.94229203 702.1276505 C1553.1082686 703.14600987 1552.27424516 704.16436925 1551.41494828 705.213588 C1539.96871946 719.02751653 1527.2962949 732.32457243 1512.94229203 743.1276505 C1511.99193071 743.86797521 1511.99193071 743.86797521 1511.02237016 744.62325597 C1458.64024266 785.4250371 1397.41059667 801.53110741 1331.80562669 801.37933278 C1329.47660983 801.38142533 1327.14759362 801.38439245 1324.81857884 801.38814151 C1318.46833967 801.39586538 1312.11816205 801.39130383 1305.76792399 801.38458561 C1299.55698309 801.37901128 1293.34604669 801.38494992 1287.13510671 801.38953971 C1274.29329265 801.39869403 1261.4514945 801.39846211 1248.60967904 801.39297795 C1235.61004325 801.38746035 1222.61041791 801.38632684 1209.61078149 801.39045262 C1208.37559862 801.39084014 1208.37559862 801.39084014 1207.11546255 801.39123549 C1203.76122849 801.39230212 1200.40699444 801.39339955 1197.0527604 801.39453604 C1165.86620112 801.40509521 1134.67964883 801.40584075 1103.49308854 801.40024114 C1102.57039242 801.40007555 1101.6476963 801.39990995 1100.69703969 801.39973935 C1099.77285414 801.39957349 1098.84866859 801.39940763 1097.89647742 801.39923674 C1069.71150702 801.39418525 1041.52653952 801.39288997 1013.34156877 801.39528203 C1011.45229545 801.39543699 1009.56302213 801.3955913 1007.67374882 801.39574497 C1000.08105299 801.39636593 992.48835716 801.39700327 984.89566134 801.3976645 C963.67250406 801.39949828 942.44934678 801.40063965 921.22618943 801.40123677 C919.77665475 801.40127771 919.77665475 801.40127771 918.29783654 801.40131947 C887.51736702 801.40213772 856.73689851 801.39988587 825.9564293 801.39553761 C824.95846969 801.39539712 823.96051007 801.39525662 822.93230925 801.39511186 C806.72731099 801.39282212 790.52231275 801.39038312 774.31731451 801.38793152 C710.05119095 801.37821926 645.78507572 801.37867006 581.51895219 801.38839269 C565.32201972 801.39083518 549.12508726 801.39325733 532.92815477 801.39553761 C531.43208624 801.39574896 531.43208624 801.39574896 529.9057941 801.39596457 C499.15666081 801.40027859 468.40752822 801.40210518 437.65839463 801.40123677 C436.69275277 801.4012096 435.7271109 801.40118244 434.73220715 801.40115444 C413.53240998 801.40052942 392.33261288 801.399262 371.13281578 801.39741577 C363.54701242 801.39675752 355.96120906 801.39613135 348.37540571 801.39551434 C346.48835117 801.39535957 344.60129663 801.39520211 342.71424209 801.39504195 C314.53867497 801.39265726 286.3631111 801.39468281 258.18754438 801.39973935 C256.8035002 801.39998773 256.8035002 801.39998773 255.39149553 801.40024114 C254.01001798 801.40048918 254.01001798 801.40048918 252.6006318 801.40074224 C221.50184101 801.40626503 190.40305861 801.40421659 159.30426902 801.39367965 C155.96078021 801.392575 152.6172914 801.39150159 149.27380258 801.39045262 C148.45328443 801.39019221 147.63276628 801.3899318 146.78738395 801.38966349 C133.82611505 801.38572781 120.86485664 801.38845546 107.90358869 801.39399064 C95.14076304 801.39929778 82.37795495 801.39739399 69.61513151 801.38796246 C62.79583357 801.38311452 55.97657735 801.38155996 49.15728021 801.38877442 C42.94061566 801.39528407 36.72402516 801.39242018 30.5073659 801.3824131 C28.285056 801.38041642 26.06273981 801.38168376 23.84043495 801.38682498 C-53.15899989 801.55216754 -123.42740413 775.64166898 -178.37020797 721.0651505 C-184.69649146 714.70270555 -190.61457029 708.26776639 -196.05770797 701.1276505 C-196.83887984 700.15183019 -197.62005172 699.17600987 -198.42489547 698.17061925 C-222.91776053 667.42712117 -239.08992597 631.50774498 -248.24520797 593.4401505 C-248.60243941 591.99213048 -248.60243941 591.99213048 -248.96688765 590.51485753 C-253.77135296 569.64946227 -254.50802656 548.62495416 -254.44988197 527.30182087 C-254.44297276 523.53692595 -254.45363015 519.77206916 -254.46182173 516.00718236 C-254.47503689 508.66737692 -254.47233672 501.32766442 -254.46358381 493.98785561 C-254.45675941 488.01369494 -254.45591087 482.03956001 -254.45915526 476.06539655 C-254.45961496 475.20937623 -254.46007466 474.3533559 -254.46054829 473.47139557 C-254.46150763 471.7314602 -254.46248028 469.99152484 -254.46346606 468.25158948 C-254.47198402 452.00492963 -254.46224237 435.75832087 -254.44606496 419.5116694 C-254.43266266 405.622814 -254.43499618 391.73403385 -254.44882125 377.8451798 C-254.46493683 361.64806726 -254.4711629 345.45099929 -254.46198446 329.25387985 C-254.46102898 327.5212828 -254.46008587 325.78868575 -254.45915526 324.05608869 C-254.45869243 323.20400237 -254.45822961 322.35191605 -254.45775276 321.47400893 C-254.45518091 315.51832939 -254.45949445 309.56267854 -254.46659392 303.60700345 C-254.47507588 296.33292991 -254.47258998 289.05895326 -254.45675169 281.78489058 C-254.44895817 278.08570858 -254.44562127 274.38668711 -254.45569915 270.68750691 C-254.50732073 250.03728761 -253.43040012 229.82298697 -248.80770797 209.6276505 C-248.59791304 208.69517491 -248.38811812 207.76269933 -248.17196578 206.80196691 C-243.92551277 188.50177657 -237.99665782 171.14758767 -230.05770797 154.1276505 C-229.66712203 153.28605382 -229.27653609 152.44445714 -228.87411422 151.57735753 C-217.89685246 128.17869425 -203.66014843 107.0572591 -186.05770797 88.1276505 C-184.92848677 86.81878048 -183.80334857 85.5063746 -182.68270797 84.1901505 C-175.67284721 76.17888107 -168.11293659 68.91714301 -159.78036422 62.29561925 C-158.01471872 60.88968919 -156.27066974 59.45602817 -154.55380172 57.99093175 C-113.13461511 22.76881428 -54.45614172 -0.13312565 0 0 Z M839.94229203 332.1276505 C839.27584672 332.79409581 838.60940141 333.46054112 837.92276078 334.14718175 C821.34120393 351.92650344 812.11460146 378.31983133 812.75479203 402.4870255 C814.62084463 428.76726628 823.71288282 451.05488784 841.94229203 470.1276505 C842.84334672 471.14085362 842.84334672 471.14085362 843.76260453 472.1745255 C860.73245793 490.54016771 886.07309222 498.40679543 910.32510453 500.3151505 C937.74199998 501.14912451 962.14639794 489.6813187 982.39151078 471.9870255 C999.00057597 456.33450334 1010.66950368 433.24823999 1012.11929399 410.3295548 C1012.41546865 396.42114539 1012.41729741 383.39941302 1007.94229203 370.1276505 C1007.72798539 369.48295812 1007.51367875 368.83826573 1007.29287797 368.17403722 C998.58818085 342.78850492 980.35610409 322.32320291 956.43057328 310.37374425 C915.31377699 292.00240973 871.39753065 300.67241189 839.94229203 332.1276505 Z M1215.94229203 305.1276505 C1215.29759965 305.34195714 1214.65290727 305.55626378 1213.98867875 305.77706456 C1189.01711581 314.33981162 1169.31509283 331.92864901 1156.94229203 355.1276505 C1145.18106553 379.68465584 1143.07357149 407.26804679 1151.89224321 433.14254308 C1156.62979228 446.29508333 1163.58209256 457.70341414 1172.94229203 468.1276505 C1173.55459672 468.82245519 1174.16690141 469.51725987 1174.79776078 470.23311925 C1193.0280594 489.70727619 1218.42623262 498.35285356 1244.42666703 500.3151505 C1269.93723475 501.08238562 1295.24650895 490.60856136 1313.64541703 473.322963 C1314.78237016 472.23628331 1314.78237016 472.23628331 1315.94229203 471.1276505 C1316.61776078 470.52694737 1317.29322953 469.92624425 1317.98916703 469.307338 C1334.89577671 453.68563066 1344.93821614 428.92854065 1345.94229203 406.1276505 C1345.99385453 405.29104894 1346.04541703 404.45444737 1346.09854203 403.59249425 C1346.93094482 378.37762667 1338.06405763 352.77293742 1320.94229203 334.1901505 C1318.97607203 332.13374539 1316.97125999 330.1219896 1314.94229203 328.1276505 C1313.79953813 326.98683019 1313.79953813 326.98683019 1312.63369828 325.822963 C1292.49880562 306.83335781 1266.14204308 300.01369082 1239.16885453 300.744838 C1231.07419177 301.13449933 1223.60995585 302.54224884 1215.94229203 305.1276505 Z " fill="#FF00FF" transform="translate(256.057707965374,1.872349500656128)"/>
</svg>
