<?xml version="1.0" encoding="UTF-8"?>
<svg version="1.1" xmlns="http://www.w3.org/2000/svg" width="2138" height="2138">
<path d="M0 0 C4.71003053 3.42418509 9.20005869 7.05811751 13.58984375 10.8828125 C14.21503906 11.42292969 14.84023437 11.96304687 15.484375 12.51953125 C31.55252794 27.45877415 42.46949361 51.00993485 43.7668457 72.86450195 C44.05103746 87.38771975 44.23134172 101.0163373 39.58984375 114.8828125 C39.17734375 116.13578125 38.76484375 117.38875 38.33984375 118.6796875 C29.48053749 143.75136227 10.96690945 163.46524594 -12.82116699 174.99668884 C-17.97962379 177.35627062 -23.17264569 179.24481664 -28.5859375 180.9296875 C-29.51590042 181.22213852 -30.44586334 181.51458954 -31.40400696 181.81590271 C-46.35422669 186.47191111 -61.40786772 190.79395213 -76.44132614 195.17142487 C-80.97719966 196.49289331 -85.51213806 197.81756262 -90.04711914 199.14208984 C-95.65907618 200.78103532 -101.27107015 202.41985267 -106.88340759 204.05749512 C-124.27518827 209.13253758 -141.66054702 214.22934315 -159.04430389 219.33179092 C-162.91048079 220.46649313 -166.7767762 221.60079138 -170.64306641 222.73510742 C-179.89885805 225.45068531 -189.15451794 228.16671207 -198.41015625 230.8828125 C-210.76422169 234.50815754 -223.11835717 238.13326371 -235.47265625 241.7578125 C-236.24307251 241.98384533 -237.01348877 242.20987816 -237.80725098 242.44276047 C-263.83411581 250.07870672 -289.86524109 257.70003212 -315.89783478 265.31642151 C-344.55178833 273.69989301 -373.20114838 282.09893511 -401.84765625 290.5078125 C-403.30153936 290.93457779 -403.30153936 290.93457779 -404.78479385 291.3699646 C-413.48045231 293.92245097 -422.17607489 296.47505958 -430.87165833 299.02780151 C-449.09238231 304.37681175 -467.3134578 309.72462273 -485.53515625 315.0703125 C-486.2910202 315.29206524 -487.04688416 315.51381798 -487.82565308 315.7422905 C-513.5142329 323.27860149 -539.20715655 330.8000186 -564.90127182 338.3174324 C-593.55407339 346.70058815 -622.20232349 355.09917193 -650.84765625 363.5078125 C-651.81588066 363.79202812 -652.78410507 364.07624374 -653.78166962 364.36907196 C-662.46779071 366.91884976 -671.15387621 369.46874878 -679.8399353 372.01873779 C-701.2808014 378.31309459 -722.72311498 384.60251475 -744.16552734 390.89160156 C-746.44766632 391.56095709 -748.72980521 392.23031289 -751.01194382 392.89966965 C-752.52531227 393.34354288 -754.03868151 393.78741343 -755.55205154 394.23128128 C-766.21179163 397.35777022 -776.87128155 400.48511073 -787.53059769 403.61304474 C-821.31590205 413.52709699 -855.10458446 423.42948684 -888.89783478 433.31642151 C-917.55178822 441.69989298 -946.20117767 450.09883558 -974.84765625 458.5078125 C-975.81588066 458.79202812 -976.78410507 459.07624374 -977.78166962 459.36907196 C-986.46779071 461.91884976 -995.15387621 464.46874878 -1003.8399353 467.01873779 C-1020.23111351 471.83066672 -1036.6230568 476.63998528 -1053.01538467 481.44799614 C-1053.93331798 481.71723398 -1054.85125129 481.98647183 -1055.79700077 482.26386839 C-1058.70938406 483.11809275 -1061.62176833 483.97231376 -1064.53415275 484.82653424 C-1087.24929045 491.48903162 -1109.96431265 498.15192271 -1132.6792717 504.81502914 C-1136.96257185 506.07147263 -1141.2458734 507.32791136 -1145.5291748 508.58435059 C-1153.82283659 511.01716678 -1162.11649693 513.44998789 -1170.41015625 515.8828125 C-1169.16246739 515.88341277 -1169.16246739 515.88341277 -1167.88957269 515.88402518 C-1077.98357782 515.92738471 -988.07758485 515.97410768 -896.12507629 516.04179382 C-894.75755133 516.04279945 -893.39002637 516.04380507 -892.02250141 516.04481069 C-863.31414703 516.06593487 -834.60579315 516.08767239 -805.89743978 516.11011788 C-791.47504473 516.1213933 -777.0526496 516.13255094 -762.63025438 516.14359719 C-760.4547689 516.1452641 -758.27928343 516.14693437 -756.10379797 516.14860478 C-722.62730599 516.17427954 -689.15081462 516.19743717 -655.67431641 516.21325684 C-654.95522337 516.2135967 -654.23613034 516.21393656 -653.49524661 516.21428673 C-641.90225846 516.21975052 -630.3092702 516.22500195 -618.71628194 516.23022517 C-585.30133858 516.2452835 -551.88639935 516.26192721 -518.4714632 516.28893566 C-517.43946521 516.28976865 -517.43946521 516.28976865 -516.38661878 516.29061847 C-501.27881381 516.30284113 -486.17100965 516.31587039 -471.06320603 516.32966207 C-464.98317557 516.33519824 -458.903145 516.34061843 -452.8231144 516.34599876 C-452.15770574 516.34659039 -451.49229709 516.34718202 -450.80672454 516.34779158 C-428.75071533 516.36734273 -406.69471624 516.37656604 -384.63869919 516.38127374 C-363.12351251 516.38608618 -341.60835534 516.40178585 -320.09318449 516.42847816 C-307.32135998 516.44399565 -294.54959373 516.45128607 -281.77776033 516.44658179 C-273.2299456 516.44425846 -264.68218565 516.45288271 -256.13438817 516.47013661 C-251.27438622 516.47964127 -246.41450532 516.48464519 -241.55449858 516.47620813 C-173.21508637 516.3689225 -109.3699839 531.9764644 -55.41015625 575.8828125 C-54.87535645 576.31464844 -54.34055664 576.74648438 -53.78955078 577.19140625 C-39.36065418 588.92843973 -25.70538662 602.0814006 -14.41015625 616.8828125 C-13.64058594 617.83542969 -12.87101562 618.78804687 -12.078125 619.76953125 C18.36498055 657.97922436 36.92545817 705.53537576 42.58984375 753.8828125 C42.6780045 754.60887601 42.76616525 755.33493951 42.85699753 756.08300494 C43.82759066 765.18832126 43.73102342 774.29587005 43.72127151 783.4393177 C43.72292301 785.33077637 43.72501013 787.2222347 43.72749162 789.11369246 C43.73304416 794.3142897 43.73238844 799.51487043 43.73071403 804.71546968 C43.72998188 810.37249453 43.73500834 816.02951476 43.73928905 821.68653762 C43.74686424 832.90802092 43.74906186 844.12949945 43.7496181 855.35098503 C43.75025284 864.68387777 43.75322271 874.01676753 43.75783157 883.34965897 C43.75816171 884.02205714 43.75849184 884.69445531 43.75883198 885.38722918 C43.76018202 888.12591551 43.76154469 890.86460184 43.76292408 893.60328815 C43.77921673 926.0088598 43.78561162 958.41443072 43.79037195 990.82000577 C43.79275642 1006.9613357 43.79646016 1023.10266522 43.80040905 1039.24399483 C43.81307329 1091.03962835 43.82385671 1142.83526185 43.82724951 1194.63089689 C43.82741175 1197.10590067 43.82757731 1199.58090446 43.82774389 1202.05590824 C43.82807769 1207.01943626 43.82840817 1211.98296429 43.82873845 1216.94649231 C43.82912535 1222.75738149 43.82951495 1228.56827067 43.82990952 1234.37915985 C43.83002194 1236.04227359 43.83013335 1237.70538732 43.83024377 1239.36850106 C43.83379207 1292.76502451 43.84886595 1346.16153449 43.87218151 1399.5580528 C43.88893079 1437.93221993 43.90440142 1476.30638451 43.90891647 1514.68055534 C43.9090567 1515.86517424 43.9090567 1515.86517424 43.90919976 1517.07372482 C43.91121915 1534.41360759 43.91237491 1551.75349032 43.91272835 1569.0933732 C43.91286452 1575.29857699 43.9130735 1581.50378078 43.9133216 1587.70898457 C43.91338316 1589.25262034 43.91344148 1590.79625612 43.91349655 1592.33989189 C43.91441512 1616.90352932 43.92436832 1641.46715266 43.93895404 1666.03078545 C43.95359419 1690.78524089 43.95859694 1715.53967907 43.9505345 1740.29413807 C43.94941926 1743.72154241 43.94840856 1747.14894677 43.94746017 1750.57635117 C43.94727021 1751.24816081 43.94708024 1751.91997046 43.94688451 1752.61213797 C43.94399505 1763.854588 43.95294047 1775.09700969 43.96509959 1786.33945343 C43.97486935 1796.14198442 43.97365227 1805.9444751 43.96366336 1815.74700575 C43.95828576 1821.32509817 43.95751449 1826.90308002 43.97017208 1832.48116316 C44.07153316 1880.20277003 38.43957167 1924.25938562 17.58984375 1967.8828125 C17.19571289 1968.7082959 16.80158203 1969.5337793 16.39550781 1970.38427734 C5.71951698 1992.38072973 -8.52730567 2012.56665174 -25.1640625 2030.44921875 C-27.04471538 2032.48686526 -28.82660221 2034.56373856 -30.59765625 2036.6953125 C-66.31392068 2077.49011336 -120.70812874 2103.92572224 -173.22265625 2114.1328125 C-173.99657715 2114.28387451 -174.77049805 2114.43493652 -175.56787109 2114.59057617 C-178.17625166 2115.06862649 -180.78911219 2115.47933812 -183.41015625 2115.8828125 C-184.49220548 2116.05192989 -185.57425471 2116.22104728 -186.68909331 2116.39528943 C-200.48950559 2118.28806253 -214.23621771 2118.16180787 -228.14391518 2118.13728809 C-230.96390585 2118.13856981 -233.78389023 2118.14286492 -236.60387796 2118.14700469 C-242.73599629 2118.15441659 -248.86807984 2118.15446584 -255.00020023 2118.14961521 C-264.18030076 2118.14238952 -273.3603715 2118.14675075 -282.54047125 2118.15329656 C-298.18932984 2118.16411478 -313.83817638 2118.16545737 -329.48703766 2118.16159821 C-345.34103327 2118.15771971 -361.1950199 2118.15818053 -377.04901505 2118.163908 C-378.05115438 2118.16426683 -379.05329372 2118.16462566 -380.08580092 2118.16499536 C-384.16751128 2118.1664703 -388.24922162 2118.1679747 -392.33093195 2118.16951682 C-433.7494348 2118.18514669 -475.16793148 2118.18783133 -516.58643675 2118.18536076 C-522.30819559 2118.18502231 -528.02995443 2118.18470021 -533.75171328 2118.18439507 C-534.88821704 2118.18433403 -536.02472079 2118.18427299 -537.19566406 2118.18421009 C-562.38867856 2118.18293789 -587.58169222 2118.18554016 -612.77470647 2118.18892114 C-618.5281807 2118.18969189 -624.28165494 2118.19043662 -630.03512918 2118.19118616 C-632.34425693 2118.19148785 -634.65338468 2118.19178973 -636.96251243 2118.1920918 C-638.67941049 2118.19231632 -638.67941049 2118.19231632 -640.43099335 2118.19254537 C-642.74621125 2118.1928489 -645.06142916 2118.19315359 -647.37664707 2118.19345942 C-713.0677517 2118.20213219 -778.75885558 2118.20677655 -844.44996071 2118.20251179 C-845.66627709 2118.20243373 -846.88259348 2118.20235567 -848.13576793 2118.20227525 C-861.6988238 2118.20140246 -875.26187965 2118.2004732 -888.82493551 2118.19952462 C-890.0494671 2118.19943911 -891.27399869 2118.1993536 -892.5356373 2118.1992655 C-902.71014164 2118.19855473 -902.71014164 2118.19855473 -907.39193706 2118.19822327 C-985.71523481 2118.19268762 -1064.03852078 2118.20022938 -1142.36181641 2118.21899414 C-1162.09677439 2118.2237164 -1181.83173239 2118.22839694 -1201.56669044 2118.232831 C-1203.38946103 2118.23324098 -1203.38946103 2118.23324098 -1205.24905526 2118.23365925 C-1242.70506057 2118.24203128 -1280.16106491 2118.24671028 -1317.61707115 2118.24753857 C-1319.38115283 2118.24757812 -1319.38115283 2118.24757812 -1321.18087253 2118.24761846 C-1346.99870493 2118.24815926 -1372.81653725 2118.24778676 -1398.63436962 2118.24657875 C-1407.87253318 2118.24615313 -1417.11069674 2118.245788 -1426.3488603 2118.24544931 C-1428.64705076 2118.24536401 -1430.94524122 2118.24527507 -1433.24343167 2118.24518249 C-1469.85191311 2118.24373416 -1506.46038654 2118.25085709 -1543.06886606 2118.26218645 C-1580.96819054 2118.27383935 -1618.86750072 2118.27439704 -1656.76682527 2118.26234303 C-1660.8388472 2118.26109122 -1664.91086913 2118.25988773 -1668.98289108 2118.25872231 C-1669.98222143 2118.25843201 -1670.98155178 2118.25814172 -1672.01116487 2118.25784263 C-1687.81814868 2118.2535216 -1703.62511213 2118.25924044 -1719.43209274 2118.2691625 C-1734.98491132 2118.2787128 -1750.53769857 2118.27750707 -1766.09051534 2118.26495627 C-1775.20151867 2118.25792169 -1784.31243177 2118.25900075 -1793.42342861 2118.27230466 C-1799.48589446 2118.28032958 -1805.54829247 2118.27733758 -1811.61075216 2118.26565502 C-1815.03999063 2118.25934688 -1818.46890838 2118.25915075 -1821.89815857 2118.26922223 C-1841.85297495 2118.32380537 -1861.40198997 2117.0982121 -1880.91015625 2112.6328125 C-1882.30886963 2112.31812012 -1882.30886963 2112.31812012 -1883.73583984 2111.99707031 C-1902.03603018 2107.75061731 -1919.39021908 2101.82176236 -1936.41015625 2093.8828125 C-1937.25175293 2093.49222656 -1938.09334961 2093.10164063 -1938.96044922 2092.69921875 C-1962.3591125 2081.72195699 -1983.48054765 2067.48525297 -2002.41015625 2049.8828125 C-2003.71902627 2048.7535913 -2005.03143215 2047.6284531 -2006.34765625 2046.5078125 C-2014.35892568 2039.49795175 -2021.62066374 2031.93804112 -2028.2421875 2023.60546875 C-2029.64811756 2021.83982326 -2031.08177858 2020.09577427 -2032.546875 2018.37890625 C-2064.20452348 1981.15133039 -2083.53519119 1932.05452955 -2089.41015625 1883.8828125 C-2089.49718403 1883.24222405 -2089.58421182 1882.6016356 -2089.67387681 1881.94163538 C-2090.73618939 1873.10968375 -2090.55098625 1864.23249178 -2090.54158401 1855.35285759 C-2090.54323511 1853.45202923 -2090.54532206 1851.55120121 -2090.54780412 1849.65037376 C-2090.55336171 1844.41910601 -2090.55270001 1839.18785466 -2090.55102653 1833.95658491 C-2090.55029488 1828.26806583 -2090.55531968 1822.57955136 -2090.55960155 1816.89103425 C-2090.56717965 1805.60485919 -2090.56937451 1794.31868887 -2090.5699306 1783.03251154 C-2090.57056518 1773.64579661 -2090.57353421 1764.25908538 -2090.57814407 1754.87237167 C-2090.57847421 1754.19624207 -2090.57880434 1753.52011246 -2090.57914448 1752.82349408 C-2090.58049451 1750.06964 -2090.58185718 1747.31578592 -2090.58323658 1744.56193185 C-2090.59953232 1711.97098342 -2090.60592453 1679.38003572 -2090.61068445 1646.78908392 C-2090.61306862 1630.5561468 -2090.6167723 1614.32321009 -2090.62072155 1598.09027329 C-2090.6333861 1546.00424806 -2090.64416946 1493.91822285 -2090.64756201 1441.8321961 C-2090.64772425 1439.34312432 -2090.64788981 1436.85405253 -2090.64805639 1434.36498075 C-2090.64839019 1429.37321313 -2090.64872067 1424.38144551 -2090.64905095 1419.38967788 C-2090.64943785 1413.54568828 -2090.64982745 1407.70169867 -2090.65022202 1401.85770907 C-2090.65033443 1400.18511966 -2090.65044585 1398.51253026 -2090.65055627 1396.83994085 C-2090.6541046 1343.13873049 -2090.66917843 1289.43753352 -2090.69249401 1235.73632828 C-2090.70924252 1197.14499522 -2090.72471361 1158.55366469 -2090.72922897 1119.96232796 C-2090.72932246 1119.16816577 -2090.72941595 1118.37400359 -2090.72951226 1117.55577588 C-2090.73153162 1100.11918972 -2090.73268741 1082.68260361 -2090.73304085 1065.24601734 C-2090.73317702 1059.00624988 -2090.73338601 1052.76648242 -2090.7336341 1046.52671496 C-2090.73369566 1044.97447117 -2090.73375398 1043.42222738 -2090.73380905 1041.86998359 C-2090.73472775 1017.16582471 -2090.74468255 992.46167983 -2090.75926654 967.75752555 C-2090.77390445 942.86230981 -2090.77891083 917.96711122 -2090.770847 893.07189193 C-2090.76973174 889.62555071 -2090.76872105 886.17920947 -2090.76777267 882.73286819 C-2090.76758271 882.05734163 -2090.76739274 881.38181507 -2090.76719701 880.685818 C-2090.76430667 869.37761897 -2090.77325548 858.06945951 -2090.78541209 846.76126571 C-2090.79517801 836.90356176 -2090.79396842 827.0458979 -2090.78397586 817.18819431 C-2090.7785955 811.57775194 -2090.77783601 805.96741954 -2090.79048458 800.35698639 C-2090.88146201 757.33902208 -2090.88146201 757.33902208 -2087.41015625 737.8828125 C-2087.293145 737.19371595 -2087.17613375 736.50461939 -2087.05557671 735.79464112 C-2086.42197917 732.06692167 -2085.69085145 728.38135846 -2084.84765625 724.6953125 C-2084.46975952 723.03822266 -2084.46975952 723.03822266 -2084.08422852 721.34765625 C-2076.91343014 691.32349604 -2064.57653858 662.55746631 -2047.41015625 636.8828125 C-2047.0023291 636.27228027 -2046.59450195 635.66174805 -2046.17431641 635.03271484 C-2028.95849125 609.57269173 -2007.81612418 587.47894121 -1983.41015625 568.8828125 C-1982.65138184 568.29951172 -1981.89260742 567.71621094 -1981.11083984 567.11523438 C-1963.08388919 553.27111371 -1944.64249903 541.27788509 -1924.41015625 530.8828125 C-1923.63462402 530.48352539 -1922.8590918 530.08423828 -1922.06005859 529.67285156 C-1911.14222595 524.164971 -1899.72424696 520.1539038 -1888.140625 516.3125 C-1886.97438945 515.92438204 -1886.97438945 515.92438204 -1885.78459358 515.52842331 C-1868.12261524 509.66461652 -1850.29513858 504.41217918 -1832.41768265 499.25087738 C-1827.9733819 497.96590855 -1823.53158646 496.67233511 -1819.08959961 495.37939453 C-1813.58547716 493.77777398 -1808.08118489 492.17675196 -1802.57588196 490.57919312 C-1786.07061948 485.78959391 -1769.5780675 480.95725865 -1753.08862305 476.11352539 C-1748.45063076 474.75118611 -1743.8122761 473.39008373 -1739.17382812 472.02929688 C-1738.40683216 471.80427994 -1737.6398362 471.579263 -1736.84959793 471.34742737 C-1735.30157021 470.89327802 -1733.7535419 470.43913068 -1732.205513 469.98498535 C-1728.35082918 468.8540816 -1724.49621446 467.72294236 -1720.64160156 466.59179688 C-1719.87977947 466.3682402 -1719.11795738 466.14468353 -1718.33304977 465.91435242 C-1716.02541758 465.23717592 -1713.71778669 464.55999497 -1711.41015625 463.8828125 C-1699.05609081 460.25746746 -1686.70195533 456.63236129 -1674.34765625 453.0078125 C-1673.57723999 452.78177967 -1672.80682373 452.55574684 -1672.01306152 452.32286453 C-1645.98515758 444.68661341 -1619.95304545 437.06480313 -1593.91935349 429.44831085 C-1564.4371665 420.82282815 -1534.96072594 412.17788041 -1505.48671341 403.52450943 C-1477.46499586 395.2975863 -1449.43985632 387.08249681 -1421.41015625 378.8828125 C-1392.26017164 370.35526959 -1363.11477052 361.81221332 -1333.97265625 353.2578125 C-1333.00226662 352.97296871 -1332.03187698 352.68812492 -1331.0320816 352.39464951 C-1322.33765606 349.84252292 -1313.64326467 347.29027999 -1304.94891357 344.73789978 C-1286.72810322 339.38886379 -1268.50694118 334.04102764 -1250.28515625 328.6953125 C-1249.5292923 328.47355976 -1248.77342834 328.25180702 -1247.99465942 328.0233345 C-1222.3060796 320.48702351 -1196.61315595 312.9656064 -1170.91904068 305.4481926 C-1142.26623901 297.06503682 -1113.61801829 288.66635355 -1084.97265625 280.2578125 C-1084.00340084 279.97330231 -1083.03414543 279.68879211 -1082.03551865 279.3956604 C-1073.33986019 276.84317403 -1064.64423761 274.29056542 -1055.94865417 271.73782349 C-1037.72793019 266.38881325 -1019.5068547 261.04100227 -1001.28515625 255.6953125 C-1000.5292923 255.47355976 -999.77342834 255.25180702 -998.99465942 255.0233345 C-973.3060796 247.48702351 -947.61315595 239.9656064 -921.91904068 232.4481926 C-893.26623901 224.06503682 -864.61801829 215.66635355 -835.97265625 207.2578125 C-834.51877314 206.83104721 -834.51877314 206.83104721 -833.03551865 206.3956604 C-824.33986019 203.84317403 -815.64423761 201.29056542 -806.94865417 198.73782349 C-788.72793019 193.38881325 -770.5068547 188.04100227 -752.28515625 182.6953125 C-751.5292923 182.47355976 -750.77342834 182.25180702 -749.99465942 182.0233345 C-724.3060796 174.48702351 -698.61315595 166.9656064 -672.91904068 159.4481926 C-644.26623901 151.06503682 -615.61801829 142.66635355 -586.97265625 134.2578125 C-585.51877314 133.83104721 -585.51877314 133.83104721 -584.03551865 133.3956604 C-575.33986019 130.84317403 -566.64423761 128.29056542 -557.94865417 125.73782349 C-539.72793019 120.38881325 -521.5068547 115.04100227 -503.28515625 109.6953125 C-502.15136032 109.36268339 -502.15136032 109.36268339 -500.99465942 109.0233345 C-475.3060796 101.48702351 -449.61315595 93.9656064 -423.91904068 86.4481926 C-395.26623901 78.06503682 -366.61801829 69.66635355 -337.97265625 61.2578125 C-336.51877314 60.83104721 -336.51877314 60.83104721 -335.03551865 60.3956604 C-326.33986019 57.84317403 -317.64423761 55.29056542 -308.94865417 52.73782349 C-255.86650743 37.15463664 -202.78183276 21.58004405 -149.68203735 6.05708313 C-141.28889378 3.60328937 -132.89657898 1.14671524 -124.50587845 -1.31542015 C-118.65675307 -3.03162883 -112.8064698 -4.74385054 -106.95568848 -6.45440674 C-104.62769474 -7.13581279 -102.30012475 -7.81866851 -99.97302246 -8.50311279 C-96.82819771 -9.42786635 -93.68188921 -10.34738932 -90.53515625 -11.265625 C-89.19895233 -11.66068237 -89.19895233 -11.66068237 -87.83575439 -12.0637207 C-57.8959788 -20.75941415 -26.08937388 -17.49753496 0 0 Z M-782.41015625 1072.8828125 C-783.32796875 1073.6975 -784.24578125 1074.5121875 -785.19140625 1075.3515625 C-796.9548411 1085.87674105 -807.72377823 1097.41453353 -817.41015625 1109.8828125 C-817.85004883 1110.44484375 -818.28994141 1111.006875 -818.74316406 1111.5859375 C-857.8174112 1161.72095508 -881.28789276 1220.79902714 -888.41015625 1283.8828125 C-888.50586914 1284.65036865 -888.60158203 1285.4179248 -888.70019531 1286.20874023 C-889.80207001 1296.20163789 -889.6540815 1306.27978451 -889.66015625 1316.3203125 C-889.66083099 1317.32180328 -889.66150574 1318.32329407 -889.66220093 1319.35513306 C-889.64473587 1335.71205422 -888.97427548 1351.69807175 -886.41015625 1367.8828125 C-886.24386719 1368.94838379 -886.07757812 1370.01395508 -885.90625 1371.11181641 C-876.2545471 1430.76470236 -849.63795905 1491.92730796 -807.859375 1536.2578125 C-805.90746172 1538.34981525 -804.03077815 1540.47029124 -802.1640625 1542.63671875 C-798.17524307 1547.21299712 -793.95397789 1551.53106167 -789.66015625 1555.8203125 C-788.86593262 1556.61373047 -788.07170898 1557.40714844 -787.25341797 1558.22460938 C-782.34491582 1563.08213746 -777.39324289 1567.65410844 -771.9453125 1571.90234375 C-769.20803262 1574.04071186 -766.60127198 1576.29997819 -763.97265625 1578.5703125 C-697.31330504 1633.93436928 -608.33975538 1656.95410946 -522.96923828 1649.2421875 C-485.19332209 1645.42779948 -448.73024405 1635.0293174 -414.41015625 1618.8828125 C-413.55808594 1618.48626465 -412.70601562 1618.0897168 -411.828125 1617.68115234 C-393.23573852 1608.95972374 -375.84214142 1598.18159895 -359.41015625 1585.8828125 C-358.8805127 1585.49061523 -358.35086914 1585.09841797 -357.80517578 1584.69433594 C-343.91718854 1574.39102481 -331.28716631 1562.94530249 -319.03515625 1550.7578125 C-318.52495941 1550.25288269 -318.01476257 1549.74795288 -317.48910522 1549.22772217 C-310.6686391 1542.46177363 -304.36277967 1535.43524834 -298.41015625 1527.8828125 C-297.50305908 1526.75673584 -297.50305908 1526.75673584 -296.57763672 1525.60791016 C-288.14020802 1515.12750892 -280.3771629 1504.39513899 -273.41015625 1492.8828125 C-272.69545166 1491.70259521 -272.69545166 1491.70259521 -271.96630859 1490.49853516 C-240.52115268 1438.06231306 -223.88788162 1379.44346708 -224.09765625 1318.3203125 C-224.09947906 1317.21719727 -224.10130188 1316.11408203 -224.10317993 1314.97753906 C-224.14832703 1298.74693677 -224.6136871 1282.90589864 -227.41015625 1266.8828125 C-227.66756592 1265.31829346 -227.66756592 1265.31829346 -227.93017578 1263.72216797 C-238.40751253 1200.81133183 -266.30272921 1142.3537566 -309.3046875 1095.20703125 C-311.1499318 1093.17007325 -312.94097295 1091.10010403 -314.72265625 1089.0078125 C-317.8007097 1085.47878843 -321.0462843 1082.13869386 -324.34765625 1078.8203125 C-324.82565674 1078.33771973 -325.30365723 1077.85512695 -325.79614258 1077.35791016 C-329.8338614 1073.33714229 -334.08796515 1069.59379505 -338.41015625 1065.8828125 C-339.36257202 1065.0623645 -339.36257202 1065.0623645 -340.33422852 1064.2253418 C-351.1691386 1054.95986462 -362.44987609 1046.63692367 -374.41015625 1038.8828125 C-375.14314941 1038.4074707 -375.87614258 1037.93212891 -376.63134766 1037.44238281 C-418.45984967 1010.58418044 -465.16458331 993.55030667 -514.41015625 986.8828125 C-515.65369873 986.70709717 -515.65369873 986.70709717 -516.92236328 986.52783203 C-611.02819096 973.79753615 -710.43319895 1006.65901179 -782.41015625 1072.8828125 Z M-1766.41015625 1060.8828125 C-1767.47878906 1061.39714844 -1768.54742188 1061.91148438 -1769.6484375 1062.44140625 C-1777.40709827 1066.38911496 -1783.96180047 1071.04950109 -1790.41015625 1076.8828125 C-1791.26480469 1077.65496094 -1792.11945313 1078.42710938 -1793 1079.22265625 C-1812.71336907 1097.96402561 -1822.82532552 1123.71289047 -1823.72265625 1150.6328125 C-1823.046636 1180.25840572 -1811.04780542 1205.54171475 -1789.73046875 1225.92578125 C-1766.57944314 1247.1210635 -1737.39022172 1251.04402694 -1707.2828064 1251.01652527 C-1705.33852234 1251.0183954 -1703.39423867 1251.0206969 -1701.44995558 1251.02339059 C-1696.12608173 1251.02949008 -1690.80222361 1251.02937718 -1685.47834706 1251.02819622 C-1679.72901116 1251.02799174 -1673.97968024 1251.03351545 -1668.23034668 1251.03825378 C-1656.97313551 1251.04655083 -1645.71592958 1251.0493082 -1634.4587156 1251.04986616 C-1625.30532772 1251.05034179 -1616.15194157 1251.05239886 -1606.99855423 1251.05556679 C-1585.2537174 1251.06293904 -1563.50888204 1251.06909188 -1541.76404381 1251.06856823 C-1540.72176108 1251.06854486 -1540.72176108 1251.06854486 -1539.65842213 1251.06852102 C-1536.13692533 1251.06843792 -1532.61542852 1251.06833888 -1529.09393172 1251.06823631 C-1528.39460029 1251.06821637 -1527.69526886 1251.06819642 -1526.97474557 1251.06817587 C-1525.56052754 1251.06813544 -1524.14630952 1251.06809364 -1522.73209149 1251.06805048 C-1500.7375661 1251.06743796 -1478.74305613 1251.07494127 -1456.74853516 1251.08862305 C-1432.01430233 1251.10400288 -1407.28007972 1251.11257546 -1382.54584181 1251.11165982 C-1369.45849572 1251.11132821 -1356.37116702 1251.11405988 -1343.28382492 1251.12483788 C-1332.14017324 1251.13395654 -1320.99654684 1251.13610691 -1309.85289304 1251.12932845 C-1304.17184532 1251.12607011 -1298.49084608 1251.12598174 -1292.80980301 1251.1346817 C-1287.59976544 1251.14257801 -1282.38981454 1251.14108346 -1277.17977901 1251.13239757 C-1275.30431265 1251.13086945 -1273.42883973 1251.13265251 -1271.55338113 1251.13825765 C-1242.10460345 1251.220376 -1215.71969801 1246.15642654 -1192.41015625 1226.8828125 C-1191.68054687 1226.30015625 -1190.9509375 1225.7175 -1190.19921875 1225.1171875 C-1172.33947097 1210.20273146 -1160.92427478 1187.13657439 -1157.69140625 1164.2578125 C-1155.39726873 1136.7281623 -1161.3280536 1109.59336744 -1179.53125 1088.07421875 C-1180.15128906 1087.35105469 -1180.77132812 1086.62789062 -1181.41015625 1085.8828125 C-1181.85488281 1085.29371094 -1182.29960938 1084.70460938 -1182.7578125 1084.09765625 C-1194.94225651 1068.33612776 -1214.68392588 1059.00730697 -1233.41015625 1053.8828125 C-1234.04433139 1053.70201216 -1234.67850654 1053.52121182 -1235.33189911 1053.33493268 C-1244.48452837 1051.11842968 -1253.90083491 1051.59910733 -1263.25245667 1051.61538696 C-1265.28662453 1051.6116479 -1267.32079097 1051.60704535 -1269.35495514 1051.60165632 C-1274.9319352 1051.58944245 -1280.50885521 1051.5896849 -1286.08584559 1051.59204507 C-1292.10582883 1051.59245365 -1298.12579292 1051.58141011 -1304.14576721 1051.57192993 C-1315.935855 1051.55532737 -1327.72592781 1051.54979476 -1339.51602484 1051.54870518 C-1349.10231447 1051.54778506 -1358.68859764 1051.54366304 -1368.27488518 1051.53730392 C-1371.03723189 1051.53550875 -1373.79957862 1051.53372912 -1376.56192535 1051.53195417 C-1377.24871576 1051.53151207 -1377.93550617 1051.53106998 -1378.6431084 1051.53061448 C-1397.9552279 1051.51831014 -1417.26734514 1051.51041293 -1436.57946873 1051.51130104 C-1437.30721282 1051.5113322 -1438.03495692 1051.51136336 -1438.78475386 1051.51139546 C-1442.47300558 1051.51156166 -1446.16125729 1051.51175975 -1449.84950901 1051.51196487 C-1450.94819667 1051.51202471 -1450.94819667 1051.51202471 -1452.06908004 1051.51208575 C-1453.55028971 1051.51216663 -1455.03149937 1051.51225022 -1456.51270903 1051.51233654 C-1479.54764183 1051.5135615 -1502.5825157 1051.49855727 -1525.61743164 1051.47119141 C-1551.51665264 1051.44043514 -1577.41583493 1051.42326108 -1603.31507534 1051.42511785 C-1606.07962255 1051.4252671 -1608.84416975 1051.42536452 -1611.60871696 1051.42542648 C-1612.28938211 1051.42544979 -1612.97004725 1051.4254731 -1613.67133861 1051.42549712 C-1624.60043178 1051.42555853 -1635.52947359 1051.41281497 -1646.45855151 1051.39556195 C-1657.45360088 1051.37856449 -1668.44858484 1051.37700526 -1679.44364167 1051.3897806 C-1685.3940928 1051.39629959 -1691.34435879 1051.3964659 -1697.29479218 1051.3790741 C-1702.75105931 1051.3632912 -1708.2069953 1051.36626032 -1713.66325461 1051.38364236 C-1715.62825339 1051.38670079 -1717.59327721 1051.38312397 -1719.55824644 1051.37192221 C-1736.25521703 1051.28310571 -1751.21156624 1053.51939305 -1766.41015625 1060.8828125 Z M-1800.41015625 1486.8828125 C-1817.05308914 1508.08208931 -1826.15109435 1534.26124448 -1822.91015625 1561.32421875 C-1819.22222613 1588.82316776 -1806.45938908 1612.85217419 -1784.61962891 1630.31445312 C-1761.8099107 1647.47236868 -1737.0335545 1651.04163959 -1709.24447632 1651.01652527 C-1707.28384343 1651.01839495 -1705.32321092 1651.02069628 -1703.36257899 1651.02339059 C-1697.98890891 1651.02949565 -1692.61525443 1651.02937652 -1687.24158168 1651.02819622 C-1681.44044045 1651.02799188 -1675.63930419 1651.03351412 -1669.83816528 1651.03825378 C-1658.47754602 1651.04655393 -1647.11693195 1651.04930834 -1635.75630991 1651.04986616 C-1626.51946083 1651.05034165 -1617.28261346 1651.05239803 -1608.04576492 1651.05556679 C-1605.38394662 1651.05646133 -1602.72212831 1651.05735419 -1600.06031001 1651.05824167 C-1599.39851226 1651.05846271 -1598.73671451 1651.05868376 -1598.05486228 1651.05891151 C-1579.44649412 1651.06506336 -1560.83812653 1651.06901231 -1542.22975731 1651.06856823 C-1541.17799057 1651.06854486 -1541.17799057 1651.06854486 -1540.10497601 1651.06852102 C-1536.55137422 1651.06843792 -1532.99777243 1651.06833888 -1529.44417064 1651.06823631 C-1528.73845391 1651.06821637 -1528.03273719 1651.06819642 -1527.30563511 1651.06817587 C-1525.87850412 1651.06813544 -1524.45137314 1651.06809364 -1523.02424215 1651.06805048 C-1500.82849212 1651.06743795 -1478.63275738 1651.07494118 -1456.43701172 1651.08862305 C-1431.48085797 1651.10400026 -1406.52471426 1651.11258827 -1381.56855547 1651.11165982 C-1368.36217812 1651.11128983 -1355.15581726 1651.11406376 -1341.94944382 1651.12483788 C-1330.70436346 1651.13395326 -1319.45930815 1651.1361096 -1308.21422569 1651.12932845 C-1302.48065206 1651.12606844 -1296.74712647 1651.12598784 -1291.01355743 1651.1346817 C-1285.75665516 1651.14257056 -1280.49983883 1651.14109096 -1275.24293859 1651.13239757 C-1273.34929068 1651.13086782 -1271.45563628 1651.13265875 -1269.56199603 1651.13825765 C-1241.35760502 1651.21607265 -1215.75119627 1646.15568134 -1193.41015625 1627.8828125 C-1192.50910156 1627.15707031 -1191.60804688 1626.43132812 -1190.6796875 1625.68359375 C-1171.49785305 1609.31545575 -1160.29418372 1585.74419743 -1157.41015625 1560.8828125 C-1155.91578877 1534.98238872 -1161.93052095 1507.80341942 -1179.55688477 1487.90673828 C-1181.78578445 1485.50756742 -1184.09274872 1483.19674565 -1186.41015625 1480.8828125 C-1187.05339844 1480.16867187 -1187.69664062 1479.45453125 -1188.359375 1478.71875 C-1196.40782219 1469.95449731 -1206.89060858 1463.60592062 -1217.78515625 1459.0078125 C-1218.39480225 1458.74605225 -1219.00444824 1458.48429199 -1219.63256836 1458.21459961 C-1234.21083224 1452.45092803 -1248.55429443 1451.29746139 -1264.04954529 1451.37487793 C-1266.08491986 1451.37025931 -1268.12029108 1451.36389998 -1270.15565544 1451.35596895 C-1275.70356369 1451.33938448 -1281.25119411 1451.34747221 -1286.7991029 1451.35991383 C-1292.79990458 1451.36900689 -1298.80066026 1451.35497352 -1304.80145264 1451.34399414 C-1315.86239624 1451.32727287 -1326.92325795 1451.32866882 -1337.98420466 1451.33964001 C-1348.20544761 1451.34972773 -1358.42665844 1451.35231722 -1368.64790535 1451.34754944 C-1369.32759349 1451.3472439 -1370.00728164 1451.34693836 -1370.70756639 1451.34662356 C-1373.46709675 1451.34537807 -1376.2266271 1451.34410446 -1378.98615743 1451.3427845 C-1404.84002001 1451.33056559 -1430.69382682 1451.34161493 -1456.54768078 1451.36317209 C-1479.48307033 1451.38215047 -1502.418371 1451.38045583 -1525.35375977 1451.36132812 C-1551.16075774 1451.33987715 -1576.96770649 1451.33143451 -1602.77471215 1451.34377718 C-1605.52933855 1451.34505992 -1608.28396496 1451.34631129 -1611.03859138 1451.34754944 C-1611.71678045 1451.34786575 -1612.39496952 1451.34818206 -1613.09370977 1451.34850795 C-1623.30416499 1451.35304468 -1633.51458445 1451.34776133 -1643.72503471 1451.33763123 C-1655.34358126 1451.32616111 -1666.9620281 1451.329506 -1678.58056288 1451.3507542 C-1684.50282565 1451.36122978 -1690.42490864 1451.36544617 -1696.34716988 1451.35215759 C-1701.77854997 1451.34015527 -1707.20958524 1451.34692452 -1712.64093447 1451.3680678 C-1714.59564274 1451.37250086 -1716.55038071 1451.37034277 -1718.50506955 1451.36056465 C-1750.71003844 1451.21194158 -1778.68557564 1462.41663146 -1800.41015625 1486.8828125 Z " fill="#FF00FF" transform="translate(2092.41015625,18.1171875)"/>
</svg>
