<?xml version="1.0" encoding="UTF-8"?>
<svg version="1.1" xmlns="http://www.w3.org/2000/svg" width="2138" height="2138">
<path d="M0 0 C3.11588849 0.0056469 6.23177151 0.00846326 9.34766388 0.0110817 C38.69124608 0.04691926 67.92207579 0.32888495 97.16034698 3.06482315 C100.01973868 3.33113401 102.88005534 3.58525262 105.74066925 3.83807755 C135.61804038 6.50979295 165.28282217 10.4526358 194.87934113 15.31805801 C196.13113159 15.52368362 196.13113159 15.52368362 197.40821075 15.73346329 C253.58982746 25.02522736 308.83075867 39.49367728 362.87934113 57.31805801 C363.52997528 57.53163956 364.18060944 57.7452211 364.85095978 57.96527481 C395.06779998 67.88846767 424.76258879 79.53228413 453.87934113 92.31805801 C455.64688751 93.09077042 455.64688751 93.09077042 457.45014191 93.87909317 C490.15330063 108.22112797 522.71819888 123.75382697 553.48285675 141.9147377 C555.96997382 143.37113021 558.47544724 144.7901295 560.98871613 146.20087051 C584.65321383 159.49865795 607.423723 174.09391014 629.87934113 189.31805801 C630.68613312 189.86333145 631.49292511 190.40860489 632.32416534 190.97040176 C648.91776602 202.19909812 665.05423841 214.03272932 680.87934113 226.31805801 C681.48729523 226.78953262 682.09524933 227.26100723 682.72162628 227.74676895 C696.14650166 238.17723457 709.34166151 248.89424211 722.26410675 259.94110489 C723.92768656 261.35927147 725.59829989 262.76881118 727.26996613 264.17743301 C734.25705823 270.08716821 741.03125135 276.17899231 747.69086456 282.45575333 C750.74332124 285.33195266 753.80579076 288.16582199 757.00434113 290.88055801 C761.26473261 294.53630878 765.1492773 298.56290518 769.09369659 302.55170059 C772.59964114 306.08266571 776.19735371 309.42078453 779.98480988 312.65008926 C785.04346212 317.10378928 789.75786067 321.94101303 794.12934113 327.06805801 C797.36275816 330.84541437 800.84657651 334.3246127 804.37934113 337.81805801 C808.44027722 341.83846466 812.38227323 345.8802998 816.08246613 350.23993301 C817.94914767 352.3987908 819.87807748 354.49329121 821.81977081 356.58465958 C826.56074619 361.69355272 831.07061611 366.91649978 835.44184113 372.34930801 C838.30860446 375.84087874 841.27715307 379.23326529 844.25434113 382.63055801 C849.91612775 389.11384589 855.28121934 395.78160294 860.54096222 402.59296036 C861.87937284 404.3180989 863.2303167 406.03254482 864.58637238 407.74383926 C871.51085668 416.48382904 878.25217549 425.35066143 884.87934113 434.31805801 C885.38690948 435.00319473 885.89447784 435.68833145 886.41742706 436.39422989 C896.02461906 449.40182233 904.99471058 462.80986669 913.87934113 476.31805801 C914.37643585 477.06877579 914.87353058 477.81949356 915.38568878 478.59296036 C935.2816643 508.64096656 952.88181519 540.0226294 969.2445755 572.11590958 C970.78518197 575.13362082 972.33926317 578.14404849 973.89496613 581.15399551 C992.52619049 617.48550364 1007.73975201 655.68812717 1020.87934113 694.31805801 C1021.11159393 695.00043533 1021.34384674 695.68281265 1021.58313751 696.38586807 C1045.26528003 766.15196556 1060.91085255 838.59211764 1067.65930939 911.97473526 C1067.87454331 914.26696165 1068.10375604 916.55737196 1068.33686066 918.84784317 C1073.78380704 973.18564662 1073.76792846 1030.53787461 1068.13257599 1084.8576088 C1067.86519245 1087.4555276 1067.6113439 1090.0545437 1067.35932159 1092.65399551 C1060.60087415 1161.67253202 1046.24927 1229.3684524 1024.87934113 1295.31805801 C1024.65137848 1296.02257095 1024.42341583 1296.72708389 1024.18854523 1297.45294571 C1003.80637454 1360.25937641 976.35515145 1421.67170242 942.59809113 1478.4201088 C940.91832103 1481.2523348 939.25557547 1484.09383683 937.59809113 1486.93915176 C922.25981604 1513.21575774 905.50389661 1538.52988739 887.52387238 1563.07196426 C885.80388533 1565.42111522 884.09158094 1567.7757558 882.37934113 1570.13055801 C876.02487847 1578.84201203 869.53106118 1587.40057792 862.73871613 1595.77508926 C860.38358011 1598.67917274 858.08145245 1601.62028946 855.79242706 1604.57660294 C849.94953315 1612.11047175 843.77018894 1619.3080801 837.48480988 1626.47430801 C835.93504023 1628.25409213 834.40354663 1630.04760863 832.87934113 1631.84930801 C827.10362531 1638.67515398 821.18043607 1645.31909144 815.03778839 1651.81805801 C811.89881386 1655.13986274 808.81951984 1658.50243874 805.78461456 1661.91986465 C800.97737471 1667.26671661 795.96465422 1672.37741181 790.87543488 1677.45477676 C789.95271286 1678.37845551 789.02999084 1679.30213425 788.07930756 1680.25380325 C786.14390596 1682.19066378 784.20674733 1684.12574391 782.26825714 1686.05951309 C779.80524184 1688.51681611 777.34676742 1690.9786056 774.88959408 1693.44174862 C772.51231794 1695.82353911 770.13120449 1698.20147822 767.75043488 1700.57977676 C766.87938614 1701.45284973 766.0083374 1702.3259227 765.11089325 1703.22545242 C760.73861209 1707.58115335 756.31080673 1711.80356507 751.61991119 1715.81560135 C748.68403528 1718.34984368 745.88743155 1721.03215439 743.06684113 1723.69305801 C738.02023168 1728.42002177 732.84599964 1732.89314945 727.44574738 1737.21649551 C724.90374749 1739.29807228 722.48404777 1741.46844181 720.06684113 1743.69305801 C715.72074643 1747.64964422 711.19047345 1751.27901865 706.54853058 1754.8756752 C701.0226798 1759.16837472 695.63065751 1763.61362439 690.26776886 1768.10785294 C689.61107208 1768.65417374 688.95437531 1769.20049454 688.27777863 1769.76337051 C687.31904091 1770.5798418 687.31904091 1770.5798418 686.34093475 1771.41280746 C683.87934113 1773.31805801 683.87934113 1773.31805801 680.87369537 1775.06011581 C676.12473261 1777.98494796 672.53731682 1780.22748919 670.78507233 1785.7948494 C670.388848 1790.12130917 670.37199259 1794.30405368 670.48871613 1798.64032364 C670.48878707 1800.28580385 670.4835086 1801.9312916 670.47332001 1803.57674026 C670.46296354 1807.11033363 670.49036745 1810.64086103 670.54764557 1814.17399979 C670.63855682 1819.78557884 670.64551826 1825.39543304 670.64228058 1831.00763321 C670.64720944 1839.91009403 670.70967903 1848.81109719 670.79589748 1857.71310663 C670.94787754 1873.58411494 671.00363883 1889.45558985 671.03668404 1905.32724333 C671.05050479 1910.87872864 671.08983266 1916.42927193 671.14986038 1921.98044062 C671.4254746 1948.84778316 669.27715044 1973.59841077 660.87934113 1999.31805801 C660.66084503 2000.00593399 660.44234894 2000.69380997 660.21723175 2001.40253067 C654.63314388 2018.70031671 645.66766407 2035.71331253 634.87934113 2050.31805801 C634.1239505 2051.35575333 633.36855988 2052.39344864 632.59027863 2053.46258926 C626.95097866 2061.07269764 620.7584096 2068.08107924 614.2133255 2074.92108536 C613.07575439 2076.11237047 611.95255889 2077.31735566 610.83246613 2078.52508926 C605.31096842 2084.31794263 599.0371314 2089.139606 592.66889191 2093.95526505 C591.03429156 2095.20005892 589.42230543 2096.47440609 587.81293488 2097.75165176 C570.74507002 2110.76082535 550.42007302 2120.30415007 529.87934113 2126.31805801 C529.09688019 2126.55315079 528.31441925 2126.78824356 527.50824738 2127.03046036 C504.31081828 2133.91065023 481.76653979 2134.74767573 457.75438213 2134.62223983 C453.49170851 2134.60323984 449.22902566 2134.60170451 444.96631622 2134.5981636 C436.92749775 2134.58891059 428.88880449 2134.56439014 420.85004067 2134.53411514 C411.68411003 2134.50035861 402.51817279 2134.48403219 393.35219526 2134.46902883 C374.52784007 2134.43783296 355.70360073 2134.38520662 336.87934113 2134.31805801 C336.87695277 2133.43182534 336.87456442 2132.54559267 336.87210369 2131.63250446 C336.81280098 2110.004048 336.73715406 2088.37570154 336.64362621 2066.747365 C336.59878408 2056.28778533 336.5593431 2045.82823884 336.53290558 2035.36859512 C336.50983128 2026.24510987 336.47632911 2017.12173061 336.43063956 2007.99832958 C336.40683379 2003.17378925 336.3880226 1998.34935307 336.38172722 1993.52475548 C336.37561857 1988.97009567 336.35541412 1984.41570192 336.32506561 1979.8611412 C336.31637692 1978.2025291 336.3125434 1976.54388208 336.31433296 1974.88524818 C336.33644557 1944.89433892 327.67074358 1918.45306929 306.44184113 1896.50555801 C285.64005888 1876.42306284 259.60212105 1868.55028751 231.19574738 1869.00555801 C206.8236642 1869.88343584 185.21511521 1880.49841031 167.87934113 1897.31805801 C166.85260284 1898.23458145 166.85260284 1898.23458145 165.80512238 1899.16962051 C150.09632384 1913.67479794 141.84428801 1935.6037607 138.87934113 1956.31805801 C138.78113525 1958.80971303 138.73343227 1961.30359425 138.72112274 1963.79715347 C138.71619308 1964.52739731 138.71126343 1965.25764114 138.70618439 1966.01001358 C138.69086625 1968.45302479 138.68246318 1970.89601017 138.67401886 1973.33905411 C138.66429857 1975.12197788 138.65415283 1976.90489938 138.64361668 1978.68781853 C138.61660624 1983.45688973 138.59540903 1988.22597009 138.57542419 1992.99507523 C138.55577933 1997.47230329 138.53088086 2001.94949616 138.50641632 2006.42670059 C138.43795187 2019.51545988 138.37790985 2032.60426213 138.31684113 2045.69305801 C138.17246613 2074.93930801 138.02809113 2104.18555801 137.87934113 2134.31805801 C49.43934113 2134.31805801 -39.00065887 2134.31805801 -130.12065887 2134.31805801 C-130.37065887 2046.50555801 -130.37065887 2046.50555801 -130.41851044 2018.86957169 C-130.45176659 2010.63101164 -130.45176659 2010.63101164 -130.49022675 2002.39247513 C-130.50710068 1998.74826814 -130.51309637 1995.10422514 -130.5121994 1991.45998001 C-130.5114193 1986.7881737 -130.53003688 1982.11679607 -130.56174803 1977.44510138 C-130.57015801 1975.7451791 -130.57218071 1974.04520786 -130.56648302 1972.34527433 C-130.51319811 1954.11741467 -133.82998986 1937.60888742 -142.12065887 1921.31805801 C-142.65561981 1920.2494252 -143.19058075 1919.18079239 -143.74175262 1918.07977676 C-148.09549617 1910.03004949 -153.7860103 1903.81367673 -160.12065887 1897.31805801 C-160.99657684 1896.3319252 -160.99657684 1896.3319252 -161.89019012 1895.32587051 C-175.93637114 1879.89285138 -199.66905547 1870.64140235 -220.05693817 1869.09540176 C-250.693098 1867.92840577 -275.46444074 1876.08249044 -298.62065887 1896.52508926 C-316.24362978 1913.12923217 -327.32880708 1937.70308986 -328.25932407 1961.92805004 C-328.26577662 1963.21948201 -328.27222918 1964.51091398 -328.27887726 1965.84148026 C-328.28628422 1966.92850954 -328.28628422 1966.92850954 -328.29384083 1968.03749901 C-328.30910917 1970.44799244 -328.31754727 1972.85845947 -328.32598114 1975.26898575 C-328.33556807 1977.00398869 -328.34557862 1978.73898933 -328.35597992 1980.47398758 C-328.3829468 1985.17175561 -328.40400071 1989.8695336 -328.4239819 1994.56733584 C-328.4458923 1999.48141834 -328.47325621 2004.39547042 -328.50003815 2009.30952835 C-328.54989682 2018.60951158 -328.5948609 2027.90951175 -328.63806051 2037.20952803 C-328.68749131 2047.79959361 -328.74238773 2058.38962866 -328.7977401 2068.97966468 C-328.91145534 2090.75910066 -329.01831705 2112.53856581 -329.12065887 2134.31805801 C-348.76795315 2134.41206286 -368.41520094 2134.48230936 -388.06267452 2134.5253067 C-397.18811815 2134.54581377 -406.31342096 2134.5737034 -415.43877411 2134.61981583 C-423.40497431 2134.66005114 -431.3710724 2134.6855766 -439.33737141 2134.69441199 C-443.54412158 2134.69956562 -447.75057999 2134.71142099 -451.95723534 2134.74097824 C-499.48697886 2135.06156315 -544.82449234 2125.07622653 -583.12065887 2095.31805801 C-584.43356903 2094.32032364 -584.43356903 2094.32032364 -585.77300262 2093.30243301 C-592.56801567 2088.02100107 -598.8602596 2082.21275942 -605.12065887 2076.31805801 C-605.83093231 2075.6619252 -606.54120575 2075.00579239 -607.27300262 2074.32977676 C-621.70695098 2060.5452085 -632.89869048 2042.88331737 -642.12065887 2025.31805801 C-642.64490448 2024.32080704 -642.64490448 2024.32080704 -643.17974091 2023.30340958 C-655.12262093 2000.20373471 -663.43200579 1972.06889726 -663.18466949 1945.93822098 C-663.17972955 1945.24085935 -663.17478961 1944.54349772 -663.16969997 1943.82500392 C-663.15838307 1942.31040345 -663.1446781 1940.79581931 -663.12882423 1939.28125954 C-663.09400599 1935.94838601 -663.07096918 1932.61545378 -663.04683745 1929.28248847 C-663.03368403 1927.48954424 -663.01989966 1925.69660455 -663.00552404 1923.90366971 C-662.91449404 1912.3910759 -662.89694957 1900.87825747 -662.87459695 1889.36536157 C-662.8522601 1878.16550235 -662.80730979 1866.96684676 -662.69219208 1855.7675209 C-662.60072449 1846.8554996 -662.55889713 1837.94480236 -662.57505733 1829.03230411 C-662.5817738 1824.32201263 -662.56389771 1819.61478134 -662.48580742 1814.90506935 C-662.41290472 1810.47211075 -662.40630341 1806.0438471 -662.44904327 1801.6105423 C-662.45318916 1799.99118765 -662.43369826 1798.37155888 -662.38786507 1796.75284767 C-662.03636062 1788.17977409 -662.03636062 1788.17977409 -665.50129724 1780.5944159 C-668.83723337 1777.37251206 -672.54117511 1774.81573647 -676.46976817 1772.37236083 C-678.66478552 1770.97056423 -680.64572203 1769.35700482 -682.63628387 1767.68133926 C-683.26172089 1767.17135391 -683.8871579 1766.66136856 -684.53154755 1766.13592911 C-685.13845428 1765.63915665 -685.74536102 1765.14238419 -686.37065887 1764.63055801 C-690.66441869 1761.12698178 -694.96489679 1757.6352868 -699.30815887 1754.19305801 C-704.77259911 1749.83245295 -710.09611126 1745.3090309 -715.41313934 1740.77118301 C-717.10347299 1739.33268347 -718.80077379 1737.90280364 -720.49956512 1736.47430801 C-727.61899514 1730.4624579 -734.50617916 1724.24858413 -741.2644577 1717.83270645 C-744.70638115 1714.56631347 -748.18733749 1711.35995847 -751.73613739 1708.20965958 C-757.07881725 1703.40737868 -762.18454703 1698.39882616 -767.25737762 1693.31415176 C-768.18105637 1692.39142975 -769.10473511 1691.46870773 -770.05640411 1690.51802444 C-771.99326464 1688.58262285 -773.92834477 1686.64546422 -775.86211395 1684.70697403 C-778.31941697 1682.24395873 -780.78120646 1679.78548431 -783.24434948 1677.32831097 C-785.62613997 1674.95103483 -788.00407908 1672.56992138 -790.38237762 1670.18915176 C-791.25545059 1669.31810303 -792.12852356 1668.44705429 -793.02805328 1667.54961014 C-797.39079911 1663.17025726 -801.61943636 1658.73434727 -805.63956451 1654.03726578 C-808.01075818 1651.28485873 -810.51052954 1648.65466155 -812.99565887 1646.00555801 C-817.53414411 1641.13220252 -821.81414685 1636.11501824 -825.98394012 1630.91962051 C-828.07948381 1628.36819073 -830.26029042 1625.93479028 -832.49565887 1623.50555801 C-836.55938666 1619.04605848 -840.27949864 1614.38282074 -843.97270966 1609.61810684 C-846.85797374 1605.90184273 -849.81924153 1602.27581668 -852.87065887 1598.69305801 C-864.17707515 1585.21853339 -874.36177743 1570.77066063 -884.58403778 1556.46649551 C-886.07465763 1554.38237498 -887.57210849 1552.30329353 -889.06987762 1550.22430801 C-939.25099929 1480.22382217 -978.87230228 1402.21965405 -1008.12065887 1321.31805801 C-1008.39845184 1320.54997818 -1008.67624481 1319.78189835 -1008.96245575 1318.99054337 C-1035.06332136 1246.60094857 -1051.59036231 1171.21699298 -1059.37065887 1094.69305801 C-1059.44788177 1093.94360916 -1059.52510468 1093.19416031 -1059.60466766 1092.42200089 C-1060.18302763 1086.72617953 -1060.67048393 1081.02535666 -1061.12065887 1075.31805801 C-1061.20786194 1074.2307338 -1061.295065 1073.14340958 -1061.38491058 1072.02313614 C-1063.13954093 1049.4601298 -1063.48471472 1026.96901753 -1063.43871689 1004.34559631 C-1063.4330717 1001.52449613 -1063.43025426 998.70340198 -1063.42763519 995.88229752 C-1063.39193844 969.42814979 -1063.09813041 943.09624511 -1060.37065887 916.75909805 C-1060.10856321 914.19995404 -1059.86141764 911.63966662 -1059.61675262 909.0788002 C-1055.43079008 865.68396984 -1048.28092653 822.7110508 -1038.12065887 780.31805801 C-1037.84768982 779.17618027 -1037.84768982 779.17618027 -1037.56920624 778.01123428 C-1017.10912039 692.7269328 -984.85725441 608.68971586 -940.60894012 532.88446426 C-939.11109381 530.30156393 -937.64308098 527.70380905 -936.18315887 525.09930801 C-913.5546116 484.80798524 -887.23852015 446.13129666 -858.4429245 409.98749161 C-857.08995691 408.27929509 -855.75193954 406.56031658 -854.41753387 404.83758926 C-849.26372984 398.19507238 -843.96855769 391.71603505 -838.46294403 385.36151505 C-835.42725354 381.85621497 -832.46617363 378.30604604 -829.55815887 374.69305801 C-825.4541382 369.63565323 -821.09751898 364.85673789 -816.67144012 360.08368301 C-814.63664005 357.87749855 -812.64419649 355.6517354 -810.68315887 353.38055801 C-802.98420299 344.52400256 -794.92145721 336.05461259 -786.57769012 327.80633926 C-783.87159886 325.06583031 -781.36339269 322.2057593 -778.85894012 319.28290176 C-774.36992614 314.20880281 -769.52479847 309.46264019 -764.37065887 305.06805801 C-760.59330252 301.83464098 -757.11410419 298.35082263 -753.62065887 294.81805801 C-749.60025222 290.75712192 -745.55841708 286.81512591 -741.19878387 283.11493301 C-739.03953494 281.24791325 -736.944692 279.31857895 -734.85283661 277.37665176 C-729.64031974 272.53898793 -724.30095075 267.95009742 -718.75737762 263.48993301 C-716.19645859 261.38049452 -713.74942433 259.18918153 -711.30815887 256.94305801 C-706.93286297 252.96050521 -702.37336621 249.29987731 -697.7019577 245.67694473 C-693.90553672 242.73030256 -690.16256451 239.73011853 -686.45171356 236.67645645 C-670.87601181 223.86907712 -654.55821306 211.99000593 -638.12065887 200.31805801 C-637.24039032 199.6928627 -636.36012177 199.06766739 -635.45317841 198.42352676 C-621.60471326 188.61913252 -607.51566481 179.29787481 -593.12065887 170.31805801 C-591.38619714 169.22835231 -589.65182122 168.13851 -587.91753387 167.04852676 C-574.82024615 158.84756017 -561.53726446 150.98439545 -548.12065887 143.31805801 C-547.091987 142.72750626 -546.06331512 142.1369545 -545.00347137 141.52850723 C-510.19983374 121.63994702 -474.07264247 103.84389477 -437.12065887 88.31805801 C-435.99707977 87.84191055 -434.87350067 87.36576309 -433.71587372 86.87518692 C-425.89601466 83.57284608 -418.0279116 80.40475775 -410.12065887 77.31805801 C-409.07896545 76.91067398 -409.07896545 76.91067398 -408.01622772 76.49505997 C-323.19131854 43.38145491 -234.54928875 20.43162287 0 0 Z M-575.45659637 870.84149551 C-577.63226825 872.86404092 -579.84230361 874.78974065 -582.12065887 876.69305801 C-592.38922218 885.64350346 -600.97850609 896.45382456 -609.12065887 907.31805801 C-609.55120575 907.89169083 -609.98175262 908.46532364 -610.42534637 909.05633926 C-616.93231397 917.7914503 -622.7818023 926.82507288 -628.12065887 936.31805801 C-628.55523407 937.09004532 -628.98980927 937.86203262 -629.43755341 938.65741348 C-651.33595617 977.99674662 -662.61860073 1021.90455706 -662.43315887 1066.88055801 C-662.43133606 1067.80148239 -662.42951324 1068.72240677 -662.42763519 1069.67123795 C-662.3797372 1084.07792488 -661.74488992 1098.12144135 -659.12065887 1112.31805801 C-658.88717743 1113.66746475 -658.88717743 1113.66746475 -658.64897919 1115.04413223 C-654.35816835 1139.33731575 -646.06616807 1163.24018906 -635.12065887 1185.31805801 C-634.60583954 1186.38008438 -634.60583954 1186.38008438 -634.08061981 1187.46356583 C-623.64829056 1208.85231292 -609.55615734 1228.48114716 -593.37065887 1245.88055801 C-591.46934809 1247.94031137 -589.66430379 1250.04068412 -587.87065887 1252.19305801 C-578.56400119 1262.85103368 -567.42164619 1271.87471896 -556.12065887 1280.31805801 C-555.54847626 1280.74715469 -554.97629364 1281.17625137 -554.38677216 1281.61835098 C-545.65014814 1288.12707426 -536.61564568 1293.9780757 -527.12065887 1299.31805801 C-526.34867157 1299.75263321 -525.57668427 1300.1872084 -524.78130341 1300.63495255 C-462.44256378 1335.33607021 -388.88587535 1342.37188329 -320.54985809 1322.97797012 C-288.45937685 1313.49184677 -257.5148102 1298.05522117 -231.70757294 1276.62860489 C-230.20245771 1275.38561127 -228.67384108 1274.17123656 -227.14409637 1272.95868301 C-211.82730864 1260.53110847 -196.85772366 1245.99485444 -185.31841278 1229.96454239 C-184.04801852 1228.21820344 -182.73550855 1226.51007685 -181.41362762 1224.80243301 C-170.43128277 1210.46693525 -161.81299784 1194.62066623 -154.12065887 1178.31805801 C-153.82739716 1177.70494766 -153.53413544 1177.09183731 -153.231987 1176.46014786 C-124.20171821 1115.24766015 -122.27606651 1041.81446256 -144.85894012 978.30243301 C-155.27466036 950.18694766 -169.39453129 924.68714857 -188.12065887 901.31805801 C-188.87991669 900.3525502 -189.6391745 899.38704239 -190.42144012 898.39227676 C-202.89038129 883.05965533 -217.43237615 868.06312598 -233.49614716 856.50262833 C-235.17991729 855.27484764 -236.82053846 854.0020908 -238.46050262 852.71649551 C-274.83551221 824.5721414 -320.57459782 807.35468507 -366.12065887 802.31805801 C-366.90021942 802.22524551 -367.67977997 802.13243301 -368.48296356 802.03680801 C-377.38559274 801.08719423 -386.30221332 801.07454092 -395.24565887 801.06805801 C-396.08525146 801.06738327 -396.92484406 801.06670853 -397.78987885 801.06601334 C-463.31905871 801.14929566 -527.56496714 825.88315806 -575.45659637 870.84149551 Z M239.46625519 858.00751114 C237.96113996 859.25050476 236.43252334 860.46487946 234.90277863 861.67743301 C219.58599089 874.10500756 204.61640591 888.64126159 193.07709503 904.67157364 C191.80670077 906.41791259 190.4941908 908.12603917 189.17230988 909.83368301 C178.18996502 924.16918078 169.57168009 940.01544979 161.87934113 956.31805801 C161.58607941 956.93116837 161.29281769 957.54427872 160.99066925 958.17596817 C131.42413717 1020.51920703 130.4764612 1094.10730883 153.34027863 1158.61493301 C163.25506189 1185.4027896 177.22429991 1209.91074966 194.87934113 1232.31805801 C195.58679474 1233.2203212 195.58679474 1233.2203212 196.30854034 1234.14081192 C209.12242804 1250.26839603 224.51867604 1266.08910151 241.25482941 1278.1334877 C242.93859954 1279.36126839 244.57922071 1280.63402523 246.21918488 1281.91962051 C282.59419446 1310.06397463 328.33328007 1327.28143096 373.87934113 1332.31805801 C374.65890167 1332.41087051 375.43846222 1332.50368301 376.24164581 1332.59930801 C385.14427499 1333.54892179 394.06089558 1333.56157511 403.00434113 1333.56805801 C403.84393372 1333.56873276 404.68352631 1333.5694075 405.5485611 1333.57010269 C471.07774096 1333.48682037 535.32364939 1308.75295797 583.21527863 1263.79462051 C585.3909505 1261.77207511 587.60098586 1259.84637538 589.87934113 1257.94305801 C600.14790443 1248.99261257 608.73718834 1238.18229146 616.87934113 1227.31805801 C617.309888 1226.7444252 617.74043488 1226.17079239 618.18402863 1225.57977676 C624.69099622 1216.84466572 630.54048455 1207.81104315 635.87934113 1198.31805801 C636.31391632 1197.54607071 636.74849152 1196.7740834 637.19623566 1195.97870255 C659.09463842 1156.63936941 670.37728298 1112.73155897 670.19184113 1067.75555801 C670.19001831 1066.83463364 670.1881955 1065.91370926 670.18631744 1064.96487808 C670.13841945 1050.55819115 669.50357217 1036.51467468 666.87934113 1022.31805801 C666.72368683 1021.41845352 666.56803253 1020.51884903 666.40766144 1019.5919838 C662.1168506 995.29880028 653.82485032 971.39592697 642.87934113 949.31805801 C642.36452179 948.25603165 642.36452179 948.25603165 641.83930206 947.1725502 C631.40697281 925.78380311 617.31483959 906.15496887 601.12934113 888.75555801 C599.22803034 886.69580466 597.42298604 884.59543191 595.62934113 882.44305801 C586.32268344 871.78508235 575.18032844 862.76139707 563.87934113 854.31805801 C563.30715851 853.88896133 562.73497589 853.45986465 562.14545441 853.01776505 C553.40883039 846.50904177 544.37432793 840.65804033 534.87934113 835.31805801 C534.10735382 834.88348282 533.33536652 834.44890762 532.53998566 834.00116348 C447.73979115 786.7967839 343.04917751 791.15894244 239.46625519 858.00751114 Z " fill="#FF00FF" transform="translate(1065.1206588745117,1.6819419860839844)"/>
</svg>
